<svg width="79" height="78" viewBox="0 0 79 78" fill="none" xmlns="http://www.w3.org/2000/svg">
<g filter="url(#filter0_d_301_4)">
<circle cx="39.5" cy="35.5" r="10.5" fill="#FFBC00"/>
<path d="M68.8274 29.5525C69.3897 27.2354 70.4984 21.0617 67.9141 16.1523C66.5258 13.5349 64.1704 11.563 61.3496 10.6567C60.5719 8.1721 56.6835 -1.56304 43.9573 0.215673L43.8257 0.243617C43.6662 0.291475 40.9263 1.08906 39.4068 2.99141C37.8873 1.08906 35.1475 0.291475 34.988 0.243617L34.8524 0.215673C22.1302 -1.56304 18.2377 8.1721 17.46 10.6567C14.6403 11.5632 12.2862 13.5351 10.8995 16.1523C8.31121 21.0617 9.4199 27.2354 9.98222 29.5525C8.04 30.4259 4 33.3253 4 42.3146C4 52.0337 10.9434 55.6031 13.1727 56.5005C13.7151 61.031 19.0593 69.9883 27.239 69.9883C33.5921 69.9883 37.7158 65.1428 39.4188 62.6462C41.1217 65.1428 45.2415 69.9883 51.5986 69.9883C59.7743 69.9883 65.1224 61.031 65.6648 56.5005C67.8942 55.6031 74.8376 52.0337 74.8376 42.3146C74.8376 33.3253 70.7696 30.4259 68.8274 29.5525ZM64.4404 54.8374C64.2308 54.8964 64.0462 55.0221 63.9144 55.1956C63.7827 55.369 63.7112 55.5808 63.7107 55.7986C63.7107 59.4397 58.5938 68.0062 51.5946 68.0062C44.4359 68.0062 40.336 60.373 40.2962 60.2972C40.2119 60.1363 40.0853 60.0014 39.93 59.9072C39.7746 59.8131 39.5964 59.7631 39.4148 59.7628C39.2327 59.7637 39.0543 59.8138 38.8984 59.9079C38.7426 60.002 38.6151 60.1365 38.5294 60.2972C38.4895 60.373 34.3937 68.0062 27.235 68.0062C20.2318 68.0062 15.115 59.4397 15.115 55.7986C15.1154 55.5811 15.0447 55.3695 14.9137 55.196C14.7826 55.0224 14.5984 54.8965 14.3891 54.8374C14.3054 54.8134 5.98619 52.3568 5.98619 42.3266C5.98619 32.4719 11.1707 31.2076 11.3901 31.1598C11.5269 31.1325 11.6567 31.0767 11.7707 30.9962C11.8847 30.9156 11.9804 30.812 12.0519 30.6921C12.1233 30.5722 12.1687 30.4386 12.1852 30.3C12.2018 30.1614 12.1891 30.0209 12.1479 29.8876C11.4498 27.3863 11.1695 24.787 11.3183 22.1944C11.6932 17.0577 14.1379 13.7634 18.5767 12.3915C18.7448 12.3399 18.8964 12.2449 19.0161 12.1161C19.1358 11.9872 19.2195 11.8291 19.2587 11.6577C19.3624 11.199 21.9308 0.490926 34.5054 2.1819C34.992 2.33744 38.4177 3.52586 38.4177 5.72333C38.4177 5.98776 38.5229 6.24138 38.7099 6.42836C38.8968 6.61535 39.1504 6.72037 39.4148 6.72037C39.6792 6.72037 39.9328 6.61535 40.1198 6.42836C40.3068 6.24138 40.4118 5.98776 40.4118 5.72333C40.4118 3.52187 43.8417 2.33345 44.3202 2.1819C56.8989 0.470985 59.4752 11.1991 59.5709 11.6538C59.608 11.826 59.6904 11.9851 59.8096 12.1148C59.9287 12.2445 60.0804 12.34 60.2489 12.3915C64.6917 13.7634 67.1324 17.0577 67.5113 22.1944C67.6601 24.787 67.3799 27.3863 66.6818 29.8876C66.6418 30.0199 66.6296 30.1591 66.6461 30.2964C66.6625 30.4337 66.7073 30.5661 66.7775 30.6852C66.8477 30.8045 66.9416 30.9081 67.0534 30.9898C67.1652 31.0714 67.2925 31.1293 67.4275 31.1598C67.6509 31.2076 72.8395 32.4719 72.8395 42.3266C72.8435 52.3049 64.7714 54.7376 64.4324 54.8374H64.4404Z" fill="url(#paint0_linear_301_4)"/>
<path d="M48.7471 41.7705C48.8229 41.6628 48.8946 41.5512 48.9664 41.4396C49.0382 41.3279 49.0462 41.3159 49.086 41.2521C49.2097 41.0487 49.3254 40.8533 49.4371 40.63L49.461 40.586C50.212 39.1369 50.6438 37.5437 50.7275 35.9137C50.8111 34.2837 50.5445 32.6546 49.9457 31.1363C49.3469 29.6179 48.4296 28.2455 47.2558 27.1113C46.0821 25.9772 44.6789 25.1078 43.1409 24.5615C41.6029 24.0152 39.9657 23.8046 38.3395 23.9442C36.7133 24.0837 35.1358 24.5701 33.7134 25.3705C32.2909 26.1709 31.0565 27.2667 30.0931 28.5842C29.1297 29.9017 28.4597 31.4104 28.1283 33.0086C27.9729 33.7685 27.8941 34.5421 27.8931 35.3177C27.8931 35.5012 27.8931 35.6807 27.913 35.8641V35.888C27.913 36.0754 27.9369 36.2589 27.9568 36.4464V36.4862C28.1511 38.3734 28.8116 40.1827 29.8789 41.7511C30.9461 43.3196 32.3866 44.5981 34.0707 45.4715V51.1906C34.0514 51.8912 34.1727 52.5886 34.4275 53.2415C34.6822 53.8944 35.0653 54.4897 35.554 54.9921C36.0427 55.4944 36.6272 55.8937 37.2728 56.1664C37.9185 56.4391 38.6123 56.5796 39.3131 56.5796C40.014 56.5796 40.7078 56.4391 41.3535 56.1664C41.9991 55.8937 42.5836 55.4944 43.0723 54.9921C43.561 54.4897 43.944 53.8944 44.1988 53.2415C44.4536 52.5886 44.5749 51.8912 44.5556 51.1906V45.4715C46.078 44.6809 47.4028 43.5577 48.432 42.1853L48.4998 42.0976C48.5875 42.0018 48.6674 41.8862 48.7471 41.7705ZM47.5507 39.94C47.4749 40.0796 47.3911 40.2152 47.3073 40.3388C47.2635 40.4106 47.2236 40.4784 47.1757 40.5462L47.0482 40.7297C45.9211 42.3408 44.3188 43.5594 42.4652 44.2152C40.6116 44.871 38.5993 44.931 36.7098 44.387C34.8204 43.8431 33.1482 42.7223 31.9271 41.1812C30.7059 39.6402 29.9969 37.756 29.8991 35.7923C29.8991 35.6327 29.8991 35.4732 29.8991 35.3137C29.9016 33.8764 30.2327 32.4587 30.867 31.1689C31.5014 29.8791 32.4222 28.7515 33.5591 27.8722C34.6961 26.9928 36.0191 26.3851 37.4269 26.0954C38.8348 25.8057 40.2901 25.8419 41.6819 26.2009C43.0736 26.5599 44.3649 27.2323 45.457 28.1668C46.549 29.1013 47.4129 30.2732 47.9827 31.5927C48.5524 32.9123 48.8129 34.3446 48.7443 35.7803C48.6756 37.216 48.2796 38.617 47.5865 39.8761C47.5721 39.8985 47.5561 39.9199 47.5387 39.94H47.5507ZM39.3311 54.4568C38.4693 54.4558 37.6432 54.113 37.0339 53.5037C36.4245 52.8944 36.0818 52.0683 36.0807 51.2065V46.2652C38.2005 46.8954 40.4577 46.8954 42.5775 46.2652V51.2025C42.5775 51.6302 42.4931 52.0537 42.3293 52.4488C42.1655 52.8439 41.9255 53.2028 41.6229 53.5051C41.3203 53.8073 40.961 54.047 40.5657 54.2103C40.1704 54.3736 39.7468 54.4574 39.3191 54.4568H39.3311Z" fill="url(#paint1_linear_301_4)"/>
<path d="M39.3192 21.7224C39.6983 21.1088 39.9681 20.4341 40.1168 19.7283C40.2622 19.0737 40.3331 18.4048 40.3282 17.7342C40.3293 17.0637 40.2571 16.395 40.1128 15.7402C39.9677 15.0364 39.7048 14.3623 39.3351 13.7461C38.9573 14.3604 38.6875 15.0348 38.5375 15.7402C38.3932 16.395 38.321 17.0637 38.3221 17.7342C38.3172 18.4048 38.3881 19.0737 38.5335 19.7283C38.6769 20.4338 38.9428 21.1087 39.3192 21.7224Z" fill="url(#paint2_linear_301_4)"/>
<path d="M29.3453 25.3529C29.1794 24.6509 28.8932 23.983 28.4993 23.3788C28.1392 22.8132 27.7163 22.29 27.2387 21.8194C26.7654 21.3444 26.2415 20.9226 25.6764 20.5616C25.0762 20.1666 24.4135 19.8758 23.7165 19.7015C23.8837 20.403 24.1698 21.0707 24.5625 21.6755C24.9235 22.2406 25.3452 22.7645 25.8202 23.2378C26.2909 23.7155 26.814 24.1383 27.3797 24.4984C27.98 24.8959 28.6452 25.1851 29.3453 25.3529Z" fill="url(#paint3_linear_301_4)"/>
<path d="M25.3763 35.8035C24.7627 35.4244 24.088 35.1545 23.3822 35.0059C22.7276 34.8605 22.0587 34.7896 21.3881 34.7945C20.7176 34.7933 20.0489 34.8656 19.3941 35.0099C18.6903 35.155 18.0162 35.4179 17.4 35.7875C18.0143 36.1654 18.6887 36.4351 19.3941 36.5852C20.0489 36.7295 20.7176 36.8017 21.3881 36.8005C22.0587 36.8055 22.7276 36.7345 23.3822 36.5892C24.0877 36.4458 24.7626 36.1799 25.3763 35.8035Z" fill="url(#paint4_linear_301_4)"/>
<path d="M57.3973 34.6367C56.7268 34.6354 56.0581 34.7077 55.4033 34.8521C54.6977 35.0015 54.0231 35.2713 53.4092 35.6497C54.024 36.0264 54.6983 36.2961 55.4033 36.4474C56.7174 36.7319 58.0772 36.7319 59.3914 36.4474C60.0964 36.2961 60.7706 36.0264 61.3855 35.6497C60.7698 35.2747 60.0959 35.0051 59.3914 34.8521C58.736 34.7115 58.0677 34.6393 57.3973 34.6367Z" fill="url(#paint5_linear_301_4)"/>
<path d="M54.8568 20.1523C54.1637 20.32 53.5042 20.6046 52.9067 20.9939C52.3484 21.3529 51.8297 21.7699 51.3592 22.2381C50.8889 22.7067 50.4717 23.2257 50.115 23.7856C49.7241 24.3822 49.4393 25.042 49.2734 25.7358C49.9666 25.5681 50.6262 25.2836 51.2237 24.8943C51.7829 24.5366 52.3017 24.1193 52.7711 23.65C53.2402 23.1799 53.6562 22.6597 54.0114 22.0986C54.402 21.5027 54.6879 20.8445 54.8568 20.1523Z" fill="url(#paint6_linear_301_4)"/>
</g>
<defs>
<filter id="filter0_d_301_4" x="0" y="0" width="78.8376" height="77.9883" filterUnits="userSpaceOnUse" color-interpolation-filters="sRGB">
<feFlood flood-opacity="0" result="BackgroundImageFix"/>
<feColorMatrix in="SourceAlpha" type="matrix" values="0 0 0 0 0 0 0 0 0 0 0 0 0 0 0 0 0 0 127 0" result="hardAlpha"/>
<feOffset dy="4"/>
<feGaussianBlur stdDeviation="2"/>
<feComposite in2="hardAlpha" operator="out"/>
<feColorMatrix type="matrix" values="0 0 0 0 0 0 0 0 0 0 0 0 0 0 0 0 0 0 0.25 0"/>
<feBlend mode="normal" in2="BackgroundImageFix" result="effect1_dropShadow_301_4"/>
<feBlend mode="normal" in="SourceGraphic" in2="effect1_dropShadow_301_4" result="shape"/>
</filter>
<linearGradient id="paint0_linear_301_4" x1="7.8327" y1="49.4815" x2="69.6538" y2="-2.4541" gradientUnits="userSpaceOnUse">
<stop stop-color="#7600FF"/>
<stop offset="1" stop-color="#260D42"/>
</linearGradient>
<linearGradient id="paint1_linear_301_4" x1="7.8327" y1="49.4815" x2="69.6538" y2="-2.4541" gradientUnits="userSpaceOnUse">
<stop stop-color="#7600FF"/>
<stop offset="1" stop-color="#260D42"/>
</linearGradient>
<linearGradient id="paint2_linear_301_4" x1="7.8327" y1="49.4815" x2="69.6538" y2="-2.4541" gradientUnits="userSpaceOnUse">
<stop stop-color="#7600FF"/>
<stop offset="1" stop-color="#260D42"/>
</linearGradient>
<linearGradient id="paint3_linear_301_4" x1="7.8327" y1="49.4815" x2="69.6538" y2="-2.4541" gradientUnits="userSpaceOnUse">
<stop stop-color="#7600FF"/>
<stop offset="1" stop-color="#260D42"/>
</linearGradient>
<linearGradient id="paint4_linear_301_4" x1="7.8327" y1="49.4815" x2="69.6538" y2="-2.4541" gradientUnits="userSpaceOnUse">
<stop stop-color="#7600FF"/>
<stop offset="1" stop-color="#260D42"/>
</linearGradient>
<linearGradient id="paint5_linear_301_4" x1="7.8327" y1="49.4815" x2="69.6538" y2="-2.4541" gradientUnits="userSpaceOnUse">
<stop stop-color="#7600FF"/>
<stop offset="1" stop-color="#260D42"/>
</linearGradient>
<linearGradient id="paint6_linear_301_4" x1="7.8327" y1="49.4815" x2="69.6538" y2="-2.4541" gradientUnits="userSpaceOnUse">
<stop stop-color="#7600FF"/>
<stop offset="1" stop-color="#260D42"/>
</linearGradient>
</defs>
</svg>
