<svg width="71" height="78" viewBox="0 0 71 78" fill="none" xmlns="http://www.w3.org/2000/svg">
<g filter="url(#filter0_d_301_2)">
<circle cx="36" cy="28" r="5" fill="#FFBC00"/>
<path d="M63.1019 42.707C64.4904 37.6542 64.4904 32.3189 63.1019 27.266C64.6733 26.2494 65.7946 24.6658 66.2335 22.8431C66.6724 21.0203 66.3953 19.0982 65.4595 17.4747C64.5238 15.8512 63.0012 14.6508 61.207 14.122C59.4128 13.5932 57.4844 13.7766 55.8214 14.6342C52.161 10.8916 47.5519 8.22115 42.4902 6.91021C42.3898 5.04401 41.5797 3.28738 40.2267 2.00194C38.8737 0.716493 37.0806 0 35.2167 0C33.3528 0 31.5598 0.716493 30.2067 2.00194C28.8537 3.28738 28.0436 5.04401 27.9432 6.91021C22.8829 8.22207 18.2751 10.8925 14.6155 14.6342C12.9525 13.7766 11.0242 13.5932 9.22999 14.122C7.43578 14.6508 5.9131 15.8512 4.97738 17.4747C4.04166 19.0982 3.76457 21.0203 4.20346 22.8431C4.64234 24.6658 5.76357 26.2494 7.33499 27.266C5.94198 32.3182 5.94198 37.6548 7.33499 42.707C5.76917 43.7269 4.65355 45.3105 4.21825 47.1311C3.78296 48.9517 4.06121 50.8704 4.99562 52.4913C5.93003 54.1122 7.4493 55.3116 9.23997 55.8421C11.0306 56.3727 12.9561 56.1938 14.6191 55.3424C18.2811 59.0794 22.8882 61.7469 27.9467 63.0593C28.0471 64.9255 28.8572 66.6821 30.2103 67.9676C31.5633 69.253 33.3563 69.9695 35.2202 69.9695C37.0842 69.9695 38.8772 69.253 40.2302 67.9676C41.5833 66.6821 42.3933 64.9255 42.4937 63.0593C47.5526 61.7478 52.1599 59.0801 55.8214 55.3424C57.4848 56.1995 59.4132 56.3825 61.2075 55.8536C63.0018 55.3248 64.5246 54.1245 65.4609 52.5012C66.3971 50.8779 66.6752 48.9559 66.2374 47.1328C65.7996 45.3097 64.6795 43.7251 63.109 42.707H63.1019ZM59.1199 15.5953C60.4626 15.5932 61.7603 16.0808 62.7709 16.9672C63.7816 17.8536 64.4363 19.0782 64.6129 20.4128C64.7896 21.7475 64.4761 23.101 63.731 24.221C62.9859 25.341 61.8601 26.1511 60.5633 26.5003C59.2665 26.8494 57.8873 26.7139 56.6828 26.1188C55.4784 25.5237 54.5309 24.5098 54.017 23.2659C53.5031 22.0221 53.4578 20.6334 53.8896 19.3586C54.3215 18.0838 55.201 17.0099 56.3641 16.3373C57.2023 15.8529 58.1524 15.5971 59.1199 15.5953ZM35.2132 1.75143C36.3076 1.75073 37.3776 2.0755 38.2879 2.68463C39.1982 3.29377 39.9079 4.15994 40.3272 5.17354C40.7465 6.18713 40.8565 7.30262 40.6435 8.37895C40.4304 9.45528 39.9037 10.4441 39.1301 11.2202C38.3565 11.9964 37.3707 12.5251 36.2974 12.7394C35.2241 12.9538 34.1115 12.8441 33.1003 12.4243C32.0891 12.0046 31.2248 11.2936 30.6167 10.3812C30.0086 9.46889 29.6841 8.39616 29.6841 7.29883C29.685 5.82846 30.2677 4.41859 31.3043 3.37855C32.3409 2.33851 33.7467 1.7533 35.2132 1.75143ZM6.51039 18.3584C7.05746 17.4079 7.87334 16.6416 8.85487 16.1562C9.8364 15.6708 10.9395 15.4882 12.0245 15.6315C13.1096 15.7747 14.1279 16.2374 14.9506 16.9611C15.7734 17.6847 16.3636 18.6367 16.6466 19.6967C16.9297 20.7567 16.8928 21.8771 16.5407 22.9161C16.1886 23.9551 15.5371 24.8661 14.6686 25.5337C13.8 26.2014 12.7535 26.5958 11.6614 26.6671C10.5693 26.7383 9.48063 26.4832 8.53315 25.934C7.90168 25.5737 7.34783 25.0912 6.9037 24.5146C6.45956 23.938 6.13398 23.2788 5.94583 22.5751C5.75768 21.8715 5.7107 21.1374 5.80761 20.4153C5.90453 19.6933 6.14339 18.9977 6.51039 18.369V18.3584ZM9.86875 54.1764C8.63321 53.8445 7.55064 53.0933 6.80553 52.0508C6.06042 51.0084 5.69886 49.7391 5.78241 48.4593C5.86595 47.1795 6.38943 45.9683 7.26371 45.0321C8.13798 44.0959 9.30897 43.4926 10.5771 43.325C11.8453 43.1574 13.1321 43.4358 14.2185 44.1129C15.3049 44.7899 16.1235 45.8237 16.535 47.0381C16.9464 48.2525 16.9252 49.5723 16.475 50.7727C16.0248 51.9732 15.1733 52.98 14.0658 53.6216C13.4381 53.989 12.744 54.2282 12.0237 54.3252C11.3033 54.4222 10.5709 54.3753 9.86875 54.187V54.1764ZM35.2132 68.2075C34.1188 68.2075 33.0489 67.882 32.139 67.2723C31.2291 66.6626 30.52 65.796 30.1013 64.7822C29.6827 63.7683 29.5733 62.6527 29.7871 61.5765C30.0009 60.5003 30.5281 59.5118 31.3022 58.7361C32.0764 57.9605 33.0625 57.4324 34.136 57.2188C35.2094 57.0051 36.322 57.1154 37.3329 57.5359C38.3438 57.9563 39.2076 58.6679 39.8151 59.5806C40.4226 60.4933 40.7465 61.5663 40.7458 62.6636C40.7463 63.3926 40.6036 64.1145 40.3258 64.7881C40.048 65.4618 39.6405 66.074 39.1268 66.5897C38.613 67.1055 38.003 67.5148 37.3315 67.7942C36.66 68.0736 35.9402 68.2176 35.2132 68.2181V68.2075ZM42.3704 61.2573C42.0457 59.5936 41.1545 58.0947 39.8492 57.0172C38.5439 55.9396 36.9057 55.3504 35.2149 55.3504C33.5242 55.3504 31.886 55.9396 30.5807 57.0172C29.2754 58.0947 28.3842 59.5936 28.0595 61.2573C23.5411 60.0262 19.4195 57.6384 16.0991 54.3283C17.3721 53.2129 18.2193 51.6889 18.4957 50.0166C18.7722 48.3444 18.4607 46.6277 17.6147 45.1602C16.7687 43.6927 15.4405 42.5654 13.8573 41.971C12.2741 41.3766 10.5342 41.352 8.93489 41.9014C7.74842 37.3611 7.74842 32.5908 8.93489 28.0505C9.69128 28.311 10.4856 28.4435 11.2854 28.4427C12.7666 28.4421 14.2126 27.9895 15.431 27.1449C16.6494 26.3003 17.5826 25.1038 18.1063 23.7145C18.63 22.3252 18.7194 20.809 18.3628 19.3675C18.0061 17.926 17.2203 16.6275 16.1097 15.6447C19.4288 12.3321 23.5507 9.94291 28.0701 8.71219C28.3947 10.3759 29.286 11.8748 30.5913 12.9523C31.8966 14.0299 33.5348 14.6191 35.2255 14.6191C36.9163 14.6191 38.5545 14.0299 39.8598 12.9523C41.1651 11.8748 42.0563 10.3759 42.381 8.71219C46.8999 9.94382 51.0217 12.3329 54.3413 15.6447C53.0649 16.7584 52.2146 18.2827 51.936 19.9561C51.6574 21.6295 51.968 23.3479 52.8144 24.8169C53.6609 26.2859 54.9906 27.414 56.5756 28.0078C58.1606 28.6016 59.9023 28.6242 61.5021 28.0716C62.6838 32.6126 62.6838 37.3817 61.5021 41.9226C59.9028 41.3732 58.1628 41.3977 56.5796 41.9921C54.9964 42.5866 53.6683 43.7139 52.8222 45.1814C51.9762 46.6489 51.6648 48.3656 51.9412 50.0378C52.2177 51.7101 53.0648 53.2342 54.3378 54.3495C51.0143 57.6569 46.8902 60.041 42.3704 61.2679V61.2573ZM63.9195 51.5935C63.4654 52.3845 62.8236 53.051 62.0511 53.5338C61.2785 54.0166 60.3991 54.3008 59.4908 54.3612C58.5825 54.4217 57.6733 54.2565 56.8439 53.8802C56.0146 53.504 55.2906 52.9284 54.7362 52.2045C54.1818 51.4805 53.8141 50.6306 53.6658 49.7301C53.5174 48.8295 53.593 47.9061 53.8858 47.0419C54.1785 46.1776 54.6795 45.3992 55.3442 44.7755C56.0088 44.1519 56.8167 43.7023 57.6962 43.4667C58.1663 43.3406 58.6508 43.2764 59.1375 43.2758C60.1079 43.2782 61.0608 43.5364 61.9004 44.0244C62.74 44.5124 63.437 45.2131 63.9214 46.0563C64.4058 46.8995 64.6605 47.8556 64.6602 48.8287C64.6599 49.8018 64.4045 50.7576 63.9195 51.6005V51.5935Z" fill="url(#paint0_linear_301_2)"/>
<path d="M35.2129 33.5145C36.3722 33.5152 37.5058 33.1711 38.4701 32.5257C39.4343 31.8803 40.186 30.9626 40.63 29.8887C41.074 28.8149 41.1903 27.6331 40.9643 26.4929C40.7383 25.3528 40.1801 24.3055 39.3603 23.4835C38.5405 22.6615 37.496 22.1018 36.3588 21.8752C35.2217 21.6486 34.0431 21.7652 32.9721 22.2104C31.9011 22.6556 30.9859 23.4092 30.3422 24.3761C29.6986 25.3429 29.3553 26.4795 29.356 27.642C29.3588 29.1986 29.9768 30.6907 31.0746 31.7914C32.1723 32.8921 33.6604 33.5117 35.2129 33.5145ZM35.2129 23.5327C36.0236 23.532 36.8163 23.7724 37.4908 24.2235C38.1652 24.6746 38.691 25.3161 39.0018 26.0669C39.3125 26.8178 39.3942 27.6441 39.2365 28.4415C39.0788 29.2388 38.6887 29.9714 38.1156 30.5465C37.5426 31.1215 36.8124 31.5132 36.0172 31.6721C35.2221 31.8309 34.3979 31.7497 33.6488 31.4388C32.8998 31.1279 32.2594 30.6012 31.809 29.9254C31.3585 29.2495 31.118 28.4549 31.118 27.642C31.1199 26.5533 31.5518 25.5097 32.3192 24.7395C33.0867 23.9694 34.1271 23.5355 35.2129 23.5327Z" fill="url(#paint1_linear_301_2)"/>
<path d="M43.2969 39.2204C42.2773 38.0988 41.0333 37.2055 39.646 36.5986C38.249 35.9845 36.7401 35.6675 35.2146 35.6675C33.6892 35.6675 32.1803 35.9845 30.7832 36.5986C29.3964 37.2046 28.1524 38.0967 27.1324 39.2168C26.1271 40.3175 25.3635 41.6176 24.8912 43.0329C24.4349 44.4125 24.2916 45.8767 24.4718 47.3189C24.8001 44.5857 26.0866 42.0585 28.1015 40.1885C30.0475 38.4147 32.583 37.4319 35.2129 37.4319C37.8428 37.4319 40.3783 38.4147 42.3243 40.1885C44.3395 42.0573 45.6271 44.583 45.9575 47.3153C46.1376 45.8732 45.9944 44.4089 45.5381 43.0294C45.0664 41.6158 44.3027 40.3179 43.2969 39.2204Z" fill="url(#paint2_linear_301_2)"/>
</g>
<defs>
<filter id="filter0_d_301_2" x="0" y="0" width="70.4399" height="77.9688" filterUnits="userSpaceOnUse" color-interpolation-filters="sRGB">
<feFlood flood-opacity="0" result="BackgroundImageFix"/>
<feColorMatrix in="SourceAlpha" type="matrix" values="0 0 0 0 0 0 0 0 0 0 0 0 0 0 0 0 0 0 127 0" result="hardAlpha"/>
<feOffset dy="4"/>
<feGaussianBlur stdDeviation="2"/>
<feComposite in2="hardAlpha" operator="out"/>
<feColorMatrix type="matrix" values="0 0 0 0 0 0 0 0 0 0 0 0 0 0 0 0 0 0 0.25 0"/>
<feBlend mode="normal" in2="BackgroundImageFix" result="effect1_dropShadow_301_2"/>
<feBlend mode="normal" in="SourceGraphic" in2="effect1_dropShadow_301_2" result="shape"/>
</filter>
<linearGradient id="paint0_linear_301_2" x1="7.37834" y1="49.4682" x2="67.3992" y2="5.01057" gradientUnits="userSpaceOnUse">
<stop stop-color="#7600FF"/>
<stop offset="1" stop-color="#260D42"/>
</linearGradient>
<linearGradient id="paint1_linear_301_2" x1="7.37834" y1="49.4682" x2="67.3992" y2="5.01057" gradientUnits="userSpaceOnUse">
<stop stop-color="#7600FF"/>
<stop offset="1" stop-color="#260D42"/>
</linearGradient>
<linearGradient id="paint2_linear_301_2" x1="7.37834" y1="49.4682" x2="67.3992" y2="5.01057" gradientUnits="userSpaceOnUse">
<stop stop-color="#7600FF"/>
<stop offset="1" stop-color="#260D42"/>
</linearGradient>
</defs>
</svg>
