<svg width="79" height="78" viewBox="0 0 79 78" fill="none" xmlns="http://www.w3.org/2000/svg">
<g filter="url(#filter0_d_301_6)">
<circle cx="39" cy="35" r="6" fill="#FFBC00"/>
<path d="M73.3293 27.7834C73.0309 26.3653 72.6438 24.9674 72.1705 23.5977L70.5095 24.17C70.9604 25.4705 71.3286 26.7982 71.6121 28.1451L73.3293 27.7834Z" fill="url(#paint0_linear_301_6)"/>
<path d="M62.5803 58.6015L63.8199 59.8411C64.8448 58.8165 65.8053 57.7293 66.6959 56.5859L65.3124 55.5078C64.465 56.5933 63.5527 57.6265 62.5803 58.6015Z" fill="url(#paint1_linear_301_6)"/>
<path d="M21.1014 65.1862C22.3465 65.9283 23.6365 66.5921 24.9642 67.1737L25.6665 65.569C24.4056 65.0152 23.18 64.3842 21.9968 63.6797L21.1014 65.1862Z" fill="url(#paint2_linear_301_6)"/>
<path d="M31.8539 69.3804C33.2723 69.6759 34.7078 69.8824 36.1521 69.9985L36.296 68.2427C34.924 68.1304 33.5602 67.9346 32.2121 67.6562L31.8539 69.3804Z" fill="url(#paint3_linear_301_6)"/>
<path d="M13.6324 56.6016L12.2944 57.7358C13.233 58.8401 14.2381 59.8861 15.3039 60.8681L16.4908 59.5759C15.4779 58.6439 14.5234 57.6506 13.6324 56.6016Z" fill="url(#paint4_linear_301_6)"/>
<path d="M43.1648 68.1035L43.379 69.8593C44.8179 69.6827 46.244 69.4152 47.6491 69.0586L47.2207 67.3555C45.8856 67.6888 44.531 67.9386 43.1648 68.1035Z" fill="url(#paint5_linear_301_6)"/>
<path d="M61.6357 8.26299C60.5283 7.32641 59.3638 6.45975 58.1487 5.66797L57.1899 7.1393C58.344 7.88865 59.4501 8.70963 60.5014 9.59742L61.6357 8.26299Z" fill="url(#paint6_linear_301_6)"/>
<path d="M68.9539 49.6808L70.5306 50.4533C71.1686 49.1503 71.7246 47.8086 72.1951 46.4361L70.5341 45.8672C70.0864 47.1697 69.5587 48.4434 68.9539 49.6808Z" fill="url(#paint7_linear_301_6)"/>
<path d="M53.668 64.9777L54.4405 66.5544C55.7415 65.9178 57.0011 65.2001 58.2119 64.4053L57.2498 62.9375C56.0993 63.6913 54.9031 64.3726 53.668 64.9777Z" fill="url(#paint8_linear_301_6)"/>
<path d="M6.37378 47.8344C6.90186 49.1831 7.51286 50.4977 8.2033 51.7709L9.74845 50.9316C9.0854 49.7242 8.49898 48.4763 7.99266 47.1953L6.37378 47.8344Z" fill="url(#paint9_linear_301_6)"/>
<path d="M72.3285 34.9805V35.0577C72.3289 36.4346 72.2445 37.8103 72.0757 39.1768L73.8315 39.391C74.0074 37.9533 74.0954 36.5062 74.0949 35.0577V34.9805H72.3285Z" fill="url(#paint10_linear_301_6)"/>
<path d="M66.6503 13.4648L65.2701 14.55C66.1176 15.634 66.8976 16.7692 67.6054 17.9492L69.1119 17.0431C68.3655 15.801 67.5434 14.606 66.6503 13.4648Z" fill="url(#paint11_linear_301_6)"/>
<path d="M8.16821 18.4087L9.71328 19.2444C10.3662 18.0287 11.0957 16.8558 11.8975 15.7328L10.4648 14.7109C9.62429 15.8953 8.85731 17.1302 8.16821 18.4087Z" fill="url(#paint12_linear_301_6)"/>
<path d="M29.4695 3.14691L28.9674 1.46484C27.5777 1.87834 26.2159 2.38037 24.8904 2.96781L25.5927 4.57255C26.8541 4.01727 28.1489 3.54118 29.4695 3.14691Z" fill="url(#paint13_linear_301_6)"/>
<path d="M19.637 7.97651L18.6152 6.55078C17.437 7.39435 16.3122 8.31032 15.2476 9.29335L16.438 10.5856C17.4505 9.65188 18.5188 8.7806 19.637 7.97651Z" fill="url(#paint14_linear_301_6)"/>
<path d="M51.7154 2.36724C50.3634 1.84024 48.9794 1.39924 47.5717 1.04688L47.1469 2.74994C48.4828 3.08488 49.7964 3.50361 51.0798 4.0036L51.7154 2.36724Z" fill="url(#paint15_linear_301_6)"/>
<path d="M40.3449 1.79741L40.4152 0.0416132C38.9678 -0.0136276 37.5183 0.0192181 36.0748 0.139948L36.2188 1.89574C37.5908 1.77857 38.9688 1.74572 40.3449 1.79741Z" fill="url(#paint16_linear_301_6)"/>
<path d="M7.09021 25.5924L5.40463 25.0938C4.99553 26.4843 4.67185 27.8986 4.43542 29.3287L6.1667 29.6131C6.3913 28.2551 6.6997 26.9123 7.09021 25.5924Z" fill="url(#paint17_linear_301_6)"/>
<path d="M4 36.562C4.06001 38.0097 4.21014 39.4523 4.44949 40.8813L6.18068 40.5933C5.95472 39.235 5.81283 37.8641 5.75579 36.4883L4 36.562Z" fill="url(#paint18_linear_301_6)"/>
<path d="M23.3419 20.7382C25.1234 18.8056 27.2116 17.1801 29.5223 15.9273C31.6049 14.7986 33.8371 13.971 36.1522 13.4692L33.6659 16.2048L36.1908 16.0818L39.0001 12.9671L35.8818 10.1367L33.3605 10.2597L36.2118 12.8477C33.6638 12.9539 31.16 13.55 28.8375 14.6034C26.2545 15.7821 23.9407 17.478 22.0391 19.5864C20.1335 21.6853 18.6842 24.157 17.783 26.8449C16.8785 29.4884 16.5774 32.3009 16.9016 35.076C17.2202 32.4022 17.9301 29.7897 19.0086 27.3224C20.0873 24.9077 21.5508 22.6841 23.3419 20.7382Z" fill="url(#paint19_linear_301_6)"/>
<path d="M34.47 55.7869C31.9044 55.209 29.4511 54.2138 27.208 52.8408C25.1859 51.6035 23.3487 50.0867 21.751 48.3354L25.3645 49.122L23.995 46.9939L19.8828 46.1055L18.991 50.2175L20.3605 52.3456L21.1752 48.5812C22.5382 50.7372 24.3053 52.6093 26.3793 54.0943C28.6947 55.7435 31.3242 56.8993 34.1048 57.4901C36.8797 58.0934 39.7498 58.1125 42.5326 57.5462C45.2739 57.0063 47.8604 55.8619 50.1036 54.1962C47.6272 55.2548 45.009 55.9446 42.3325 56.2435C39.7042 56.5155 37.0492 56.3613 34.47 55.7869Z" fill="url(#paint20_linear_301_6)"/>
<path d="M59.6691 43.75C60.852 41.4911 61.5887 39.0256 61.8393 36.4881C62.1118 33.661 61.8011 30.808 60.9263 28.1059C60.0591 25.4065 58.6423 22.9161 56.765 20.7913C54.9314 18.6886 52.6521 17.0211 50.093 15.9102C52.2482 17.5247 54.1544 19.4474 55.7502 21.6165C57.2903 23.7538 58.476 26.1252 59.2618 28.6397C60.0453 31.1496 60.4084 33.7719 60.3364 36.4003C60.2793 38.7698 59.8856 41.1191 59.167 43.3778L58.0398 39.8662L56.8845 42.1137L58.1697 46.1239L62.1764 44.8387L63.3317 42.5912L59.6691 43.75Z" fill="url(#paint21_linear_301_6)"/>
<path d="M35.3937 28.7638C34.1496 29.4827 33.1466 30.5543 32.5115 31.8432C31.8764 33.132 31.6377 34.5804 31.8256 36.0049C32.0135 37.4294 32.6196 38.7661 33.5672 39.8462C34.5149 40.9263 35.7614 41.7012 37.1494 42.0728C38.5373 42.4445 40.0043 42.3963 41.3648 41.9343C42.7254 41.4723 43.9184 40.6172 44.793 39.4772C45.6676 38.3372 46.1846 36.9635 46.2786 35.5297C46.3725 34.096 46.0393 32.6665 45.3209 31.4221C44.3553 29.755 42.7679 28.5389 40.9069 28.0406C39.0458 27.5423 37.0632 27.8024 35.3937 28.7638ZM43.8004 32.3C44.3462 33.2442 44.5998 34.329 44.529 35.4173C44.4582 36.5055 44.0662 37.5484 43.4026 38.4139C42.739 39.2793 41.8337 39.9285 40.8012 40.2794C39.7686 40.6303 38.6551 40.667 37.6016 40.385C36.5481 40.103 35.602 39.5148 34.8828 38.695C34.1636 37.8751 33.7038 36.8604 33.5614 35.7791C33.419 34.6979 33.6005 33.5987 34.0829 32.6206C34.5653 31.6425 35.327 30.8295 36.2716 30.2844C37.5376 29.5548 39.0413 29.3572 40.4528 29.7351C41.8643 30.113 43.0683 31.0355 43.8004 32.3Z" fill="url(#paint22_linear_301_6)"/>
</g>
<defs>
<filter id="filter0_d_301_6" x="0" y="0.015625" width="78.0948" height="77.9844" filterUnits="userSpaceOnUse" color-interpolation-filters="sRGB">
<feFlood flood-opacity="0" result="BackgroundImageFix"/>
<feColorMatrix in="SourceAlpha" type="matrix" values="0 0 0 0 0 0 0 0 0 0 0 0 0 0 0 0 0 0 127 0" result="hardAlpha"/>
<feOffset dy="4"/>
<feGaussianBlur stdDeviation="2"/>
<feComposite in2="hardAlpha" operator="out"/>
<feColorMatrix type="matrix" values="0 0 0 0 0 0 0 0 0 0 0 0 0 0 0 0 0 0 0.25 0"/>
<feBlend mode="normal" in2="BackgroundImageFix" result="effect1_dropShadow_301_6"/>
<feBlend mode="normal" in="SourceGraphic" in2="effect1_dropShadow_301_6" result="shape"/>
</filter>
<linearGradient id="paint0_linear_301_6" x1="7.79252" y1="49.4932" x2="69.494" y2="-1.80247" gradientUnits="userSpaceOnUse">
<stop stop-color="#7600FF"/>
<stop offset="1" stop-color="#260D42"/>
</linearGradient>
<linearGradient id="paint1_linear_301_6" x1="7.79252" y1="49.4932" x2="69.494" y2="-1.80247" gradientUnits="userSpaceOnUse">
<stop stop-color="#7600FF"/>
<stop offset="1" stop-color="#260D42"/>
</linearGradient>
<linearGradient id="paint2_linear_301_6" x1="7.79252" y1="49.4932" x2="69.494" y2="-1.80247" gradientUnits="userSpaceOnUse">
<stop stop-color="#7600FF"/>
<stop offset="1" stop-color="#260D42"/>
</linearGradient>
<linearGradient id="paint3_linear_301_6" x1="7.79252" y1="49.4932" x2="69.494" y2="-1.80247" gradientUnits="userSpaceOnUse">
<stop stop-color="#7600FF"/>
<stop offset="1" stop-color="#260D42"/>
</linearGradient>
<linearGradient id="paint4_linear_301_6" x1="7.79252" y1="49.4932" x2="69.494" y2="-1.80247" gradientUnits="userSpaceOnUse">
<stop stop-color="#7600FF"/>
<stop offset="1" stop-color="#260D42"/>
</linearGradient>
<linearGradient id="paint5_linear_301_6" x1="7.79252" y1="49.4932" x2="69.494" y2="-1.80247" gradientUnits="userSpaceOnUse">
<stop stop-color="#7600FF"/>
<stop offset="1" stop-color="#260D42"/>
</linearGradient>
<linearGradient id="paint6_linear_301_6" x1="7.79252" y1="49.4932" x2="69.494" y2="-1.80247" gradientUnits="userSpaceOnUse">
<stop stop-color="#7600FF"/>
<stop offset="1" stop-color="#260D42"/>
</linearGradient>
<linearGradient id="paint7_linear_301_6" x1="7.79252" y1="49.4932" x2="69.494" y2="-1.80247" gradientUnits="userSpaceOnUse">
<stop stop-color="#7600FF"/>
<stop offset="1" stop-color="#260D42"/>
</linearGradient>
<linearGradient id="paint8_linear_301_6" x1="7.79252" y1="49.4932" x2="69.494" y2="-1.80247" gradientUnits="userSpaceOnUse">
<stop stop-color="#7600FF"/>
<stop offset="1" stop-color="#260D42"/>
</linearGradient>
<linearGradient id="paint9_linear_301_6" x1="7.79252" y1="49.4932" x2="69.494" y2="-1.80247" gradientUnits="userSpaceOnUse">
<stop stop-color="#7600FF"/>
<stop offset="1" stop-color="#260D42"/>
</linearGradient>
<linearGradient id="paint10_linear_301_6" x1="7.79252" y1="49.4932" x2="69.494" y2="-1.80247" gradientUnits="userSpaceOnUse">
<stop stop-color="#7600FF"/>
<stop offset="1" stop-color="#260D42"/>
</linearGradient>
<linearGradient id="paint11_linear_301_6" x1="7.79252" y1="49.4932" x2="69.494" y2="-1.80247" gradientUnits="userSpaceOnUse">
<stop stop-color="#7600FF"/>
<stop offset="1" stop-color="#260D42"/>
</linearGradient>
<linearGradient id="paint12_linear_301_6" x1="7.79252" y1="49.4932" x2="69.494" y2="-1.80247" gradientUnits="userSpaceOnUse">
<stop stop-color="#7600FF"/>
<stop offset="1" stop-color="#260D42"/>
</linearGradient>
<linearGradient id="paint13_linear_301_6" x1="7.79252" y1="49.4932" x2="69.494" y2="-1.80247" gradientUnits="userSpaceOnUse">
<stop stop-color="#7600FF"/>
<stop offset="1" stop-color="#260D42"/>
</linearGradient>
<linearGradient id="paint14_linear_301_6" x1="7.79252" y1="49.4932" x2="69.494" y2="-1.80247" gradientUnits="userSpaceOnUse">
<stop stop-color="#7600FF"/>
<stop offset="1" stop-color="#260D42"/>
</linearGradient>
<linearGradient id="paint15_linear_301_6" x1="7.79252" y1="49.4932" x2="69.494" y2="-1.80247" gradientUnits="userSpaceOnUse">
<stop stop-color="#7600FF"/>
<stop offset="1" stop-color="#260D42"/>
</linearGradient>
<linearGradient id="paint16_linear_301_6" x1="7.79252" y1="49.4932" x2="69.494" y2="-1.80247" gradientUnits="userSpaceOnUse">
<stop stop-color="#7600FF"/>
<stop offset="1" stop-color="#260D42"/>
</linearGradient>
<linearGradient id="paint17_linear_301_6" x1="7.79252" y1="49.4932" x2="69.494" y2="-1.80247" gradientUnits="userSpaceOnUse">
<stop stop-color="#7600FF"/>
<stop offset="1" stop-color="#260D42"/>
</linearGradient>
<linearGradient id="paint18_linear_301_6" x1="7.79252" y1="49.4932" x2="69.494" y2="-1.80247" gradientUnits="userSpaceOnUse">
<stop stop-color="#7600FF"/>
<stop offset="1" stop-color="#260D42"/>
</linearGradient>
<linearGradient id="paint19_linear_301_6" x1="7.79252" y1="49.4932" x2="69.494" y2="-1.80247" gradientUnits="userSpaceOnUse">
<stop stop-color="#7600FF"/>
<stop offset="1" stop-color="#260D42"/>
</linearGradient>
<linearGradient id="paint20_linear_301_6" x1="7.79252" y1="49.4932" x2="69.494" y2="-1.80247" gradientUnits="userSpaceOnUse">
<stop stop-color="#7600FF"/>
<stop offset="1" stop-color="#260D42"/>
</linearGradient>
<linearGradient id="paint21_linear_301_6" x1="7.79252" y1="49.4932" x2="69.494" y2="-1.80247" gradientUnits="userSpaceOnUse">
<stop stop-color="#7600FF"/>
<stop offset="1" stop-color="#260D42"/>
</linearGradient>
<linearGradient id="paint22_linear_301_6" x1="7.79252" y1="49.4932" x2="69.494" y2="-1.80247" gradientUnits="userSpaceOnUse">
<stop stop-color="#7600FF"/>
<stop offset="1" stop-color="#260D42"/>
</linearGradient>
</defs>
</svg>
