<svg width="64" height="80" viewBox="0 0 64 80" fill="none" xmlns="http://www.w3.org/2000/svg">
<g filter="url(#filter0_d_301_5)">
<path d="M32.5 18L35.5 25L43.4372 25.9463L37 30.8574L39.2595 38.8037L32.5 34.5L25.7405 38.8037L28 30.8574L21.5629 25.9463L29.5 25L32.5 18Z" fill="#FFBC00"/>
<path d="M58.1475 24.2527C57.6005 23.4164 57.0889 22.633 56.8842 21.8744C56.6796 21.1157 56.7183 20.11 56.7748 19.0726C56.856 17.573 56.9407 16.0205 56.1856 14.7114C55.4304 13.4023 54.0155 12.6754 52.657 11.9944C51.7501 11.5357 50.8927 11.1051 50.3176 10.53C49.7165 9.82677 49.223 9.03843 48.8532 8.19055C48.1721 6.8391 47.47 5.44178 46.1397 4.66196C44.8094 3.88215 43.278 3.99147 41.7748 4.07263C40.8409 4.17771 39.8965 4.14209 38.9731 3.96684C38.1232 3.66449 37.3229 3.23754 36.5984 2.70005C35.3175 1.86025 33.9978 0.992188 32.4205 0.992188C30.8433 0.992188 29.5236 1.86025 28.2463 2.70005C27.521 3.23834 26.7194 3.66533 25.868 3.96684C24.9447 4.14225 24.0003 4.17787 23.0663 4.07263C21.5667 3.99147 20.0141 3.90685 18.705 4.66196C17.3959 5.41708 16.669 6.83204 15.988 8.19055C15.5293 9.09739 15.0987 9.95479 14.5236 10.53C13.9484 11.1051 13.091 11.5357 12.1842 11.9944C10.8327 12.6754 9.4354 13.3811 8.65558 14.7114C7.87577 16.0416 7.98165 17.5695 8.06281 19.0726C8.16793 20.0066 8.13223 20.9511 7.95693 21.8744C7.6547 22.7255 7.22776 23.527 6.69014 24.2527C5.85034 25.53 4.98236 26.8532 4.98236 28.4269C4.98236 30.0007 5.85034 31.3239 6.69014 32.6048C7.22834 33.3288 7.65534 34.1292 7.95693 34.9795C8.13234 35.9028 8.16804 36.8472 8.06281 37.7812C7.98165 39.2808 7.89694 40.8334 8.65558 42.1425C9.41423 43.4516 10.8221 44.1785 12.1842 44.8595C13.091 45.3183 13.9484 45.7487 14.5236 46.3239C15.0987 46.899 15.5293 47.7565 15.988 48.6634C16.669 50.0148 17.3747 51.4121 18.705 52.1919C19.7353 52.7883 20.9174 52.8589 22.1065 52.8236C21.8242 53.2258 21.5455 53.6316 21.2703 54.0374L20.2716 55.5194L19.2942 57.019C18.6344 58.0141 18.0063 59.0268 17.3712 60.0324C16.736 61.0381 16.1079 62.0543 15.4904 63.0706L14.4813 64.7219L16.3937 64.2526C18.3239 63.7798 20.2435 63.2823 22.163 62.7777C22.7276 64.8701 23.3027 66.959 23.9273 69.0374L24.4778 70.9323L25.4128 69.235C26.0585 68.06 26.7043 66.885 27.3288 65.7064C27.9534 64.5279 28.5956 63.3422 29.199 62.146L30.12 60.357L31.0162 58.554C31.4572 57.6648 31.8842 56.7649 32.3041 55.8652H32.5158C32.8875 56.6603 33.2663 57.4495 33.6521 58.2328C34.2555 59.4784 34.8905 60.7028 35.5186 61.9414C36.1467 63.1799 36.8101 64.3903 37.4523 65.6147C38.0945 66.8391 38.772 68.0459 39.4425 69.2527L40.4199 71.017L40.9739 69.055C41.5667 66.9708 42.1406 64.8807 42.6958 62.7847C44.6153 63.2858 46.5396 63.7727 48.4686 64.2455L50.3387 64.7043L49.3577 63.0882C48.7367 62.0719 48.1087 61.0604 47.4735 60.0536C46.8384 59.0468 46.1974 58.0423 45.5505 57.0402C44.9083 56.0346 44.2448 55.043 43.5779 54.0515L42.7452 52.8342C43.9378 52.8694 45.12 52.7989 46.1574 52.2025C47.4876 51.4298 48.1898 50.0325 48.8708 48.674C49.3295 47.7671 49.76 46.9096 50.3351 46.3345C50.9103 45.7593 51.7678 45.3288 52.6746 44.8701C54.0261 44.1891 55.4234 43.4834 56.2032 42.1567C56.983 40.8299 56.8736 39.295 56.7925 37.7918C56.736 36.765 56.6831 35.7981 56.9019 34.9901C57.1206 34.1821 57.6076 33.4481 58.1651 32.6118C59.0049 31.3345 59.8729 30.0113 59.8729 28.4375C59.8729 26.8638 58.9873 25.53 58.1475 24.2527ZM30.4516 58.2188L29.3401 59.8984L28.2498 61.5885C27.5123 62.7106 26.8136 63.8539 26.1009 64.9901C25.7339 65.5712 25.3716 66.1592 25.014 66.7544C24.5647 64.9948 24.1072 63.2376 23.6415 61.4827L23.4157 60.6287L22.5617 60.8582C20.9774 61.2851 19.386 61.7297 17.8122 62.1778C18.0733 61.6979 18.3274 61.2145 18.5814 60.7311C19.1354 59.6725 19.6965 58.6139 20.2293 57.5554L21.0374 55.9604L21.8243 54.3514C22.0713 53.8397 22.3182 53.3246 22.5582 52.8094L23.0733 52.7812C24.0073 52.6777 24.9516 52.7134 25.8751 52.8871C26.7265 53.1886 27.5281 53.6156 28.2533 54.1538C29.4354 54.9301 30.6562 55.7311 32.0783 55.8476C31.5278 56.6309 30.9856 57.4213 30.4516 58.2188ZM43.0416 54.3373C43.5673 55.3959 44.1002 56.4791 44.6436 57.5377C45.187 58.5963 45.7304 59.6549 46.2914 60.7134C46.5525 61.211 46.8207 61.7015 47.0853 62.1955C45.4904 61.7403 43.9097 61.2886 42.2936 60.8546L41.4502 60.6287L41.2173 61.4757C40.7469 63.2117 40.2881 64.9525 39.8411 66.698C39.4671 66.084 39.1002 65.4735 38.7226 64.863C37.9851 63.6951 37.2582 62.5166 36.5102 61.3521C35.7621 60.1877 35.0106 59.0268 34.2307 57.88C33.7755 57.1919 33.3098 56.5145 32.8193 55.837C34.2307 55.7029 35.4198 54.916 36.5878 54.1503C37.3123 53.6128 38.1126 53.1859 38.9625 52.8835C39.8859 52.7082 40.8304 52.6725 41.7643 52.7776L42.29 52.8059C42.5476 53.314 42.784 53.8292 43.0416 54.3373ZM56.6726 31.6344C56.0727 32.5483 55.4552 33.4904 55.1764 34.5243C54.8977 35.5582 54.9541 36.7579 55.014 37.88C55.0846 39.1785 55.1517 40.4065 54.6612 41.2604C54.1707 42.1143 53.0451 42.693 51.8736 43.2858C50.8821 43.7869 49.8553 44.3021 49.0826 45.0783C48.3098 45.8546 47.7911 46.8779 47.29 47.8694C46.6972 49.0409 46.1397 50.1489 45.2646 50.657C44.3895 51.1651 43.1827 51.0839 41.8807 51.0098C40.7621 50.9498 39.6047 50.8864 38.5285 51.1722C37.4932 51.5175 36.5182 52.0222 35.6386 52.6683C34.5271 53.3987 33.4791 54.0798 32.4311 54.0798C31.3831 54.0798 30.3352 53.3917 29.2237 52.6683C28.3098 52.0685 27.3676 51.451 26.3337 51.1722C25.7036 51.0173 25.0559 50.9449 24.4071 50.9569C23.9308 50.9569 23.4509 50.9851 22.9957 51.0098C21.6937 51.0804 20.4658 51.1474 19.6118 50.657C18.7579 50.1665 18.1792 49.0409 17.5864 47.8694C17.0889 46.8779 16.5702 45.8511 15.7939 45.0783C15.0176 44.3056 13.9944 43.7833 13.0028 43.2858C11.8313 42.693 10.7233 42.1355 10.2152 41.2604C9.70707 40.3853 9.78823 39.1785 9.86233 37.8765C9.98385 36.7575 9.9291 35.6263 9.70003 34.5243C9.4248 33.4904 8.80377 32.5483 8.20391 31.6344C7.4735 30.5229 6.79248 29.4749 6.79248 28.4269C6.79248 27.3789 7.48056 26.331 8.20391 25.2195C8.80377 24.3056 9.4248 23.3634 9.70003 22.3295C9.92918 21.2263 9.98393 20.0941 9.86233 18.9739C9.79176 17.6754 9.72472 16.4474 10.2152 15.5935C10.7057 14.7396 11.8313 14.1609 13.0028 13.5681C13.9944 13.067 15.0211 12.5518 15.7974 11.7756C16.5737 10.9993 17.0889 9.97601 17.5864 8.98448C18.1792 7.81299 18.7368 6.70496 19.6118 6.19685C20.4869 5.68873 21.6937 5.76989 22.9957 5.84399C24.1143 5.90397 25.2716 5.9675 26.3479 5.68169C27.4241 5.39587 28.3239 4.78543 29.2378 4.18557C30.3493 3.45515 31.3973 2.77414 32.4453 2.77414C33.4932 2.77414 34.5413 3.47985 35.6528 4.18557C36.5667 4.78543 37.5123 5.40646 38.5427 5.68169C39.6459 5.91083 40.7782 5.96559 41.8983 5.84399C43.1969 5.77342 44.4248 5.70637 45.2787 6.19685C46.1327 6.68732 46.7113 7.81299 47.3041 8.98448C47.8052 9.97601 48.3203 11.0028 49.0966 11.7756C49.8729 12.5483 50.8962 13.0706 51.8878 13.5681C53.0593 14.1609 54.1672 14.7184 54.6753 15.5935C55.1834 16.4686 55.1023 17.6753 55.0282 18.9774C54.9682 20.0959 54.9047 21.2533 55.1905 22.3295C55.4763 23.4057 56.0867 24.3056 56.6866 25.2195C57.417 26.331 58.098 27.3789 58.098 28.4269C58.098 29.4749 57.403 30.5229 56.6726 31.6344Z" fill="url(#paint0_linear_301_5)"/>
<path d="M32.4276 16.4937L28.6133 24.2247L20.0776 25.4633L26.2526 31.4831L24.7953 39.9834L32.4276 35.9679L40.06 39.9834L38.6026 31.4831L44.7776 25.4633L36.2456 24.2247L32.4276 16.4937ZM36.7078 30.8656L37.7169 36.7547L32.4241 33.9742L27.1312 36.7547L28.1439 30.8656L23.8637 26.6947L29.7776 25.8373L32.4205 20.4773L35.067 25.8373L40.9774 26.6947L36.7078 30.8656Z" fill="url(#paint1_linear_301_5)"/>
</g>
<defs>
<filter id="filter0_d_301_5" x="0.982361" y="0.992188" width="62.8906" height="78.0234" filterUnits="userSpaceOnUse" color-interpolation-filters="sRGB">
<feFlood flood-opacity="0" result="BackgroundImageFix"/>
<feColorMatrix in="SourceAlpha" type="matrix" values="0 0 0 0 0 0 0 0 0 0 0 0 0 0 0 0 0 0 127 0" result="hardAlpha"/>
<feOffset dy="4"/>
<feGaussianBlur stdDeviation="2"/>
<feComposite in2="hardAlpha" operator="out"/>
<feColorMatrix type="matrix" values="0 0 0 0 0 0 0 0 0 0 0 0 0 0 0 0 0 0 0.25 0"/>
<feBlend mode="normal" in2="BackgroundImageFix" result="effect1_dropShadow_301_5"/>
<feBlend mode="normal" in="SourceGraphic" in2="effect1_dropShadow_301_5" result="shape"/>
</filter>
<linearGradient id="paint0_linear_301_5" x1="7.95224" y1="50.4995" x2="65.3619" y2="13.1468" gradientUnits="userSpaceOnUse">
<stop stop-color="#7600FF"/>
<stop offset="1" stop-color="#260D42"/>
</linearGradient>
<linearGradient id="paint1_linear_301_5" x1="7.95224" y1="50.4995" x2="65.3619" y2="13.1468" gradientUnits="userSpaceOnUse">
<stop stop-color="#7600FF"/>
<stop offset="1" stop-color="#260D42"/>
</linearGradient>
</defs>
</svg>
