<svg width="73" height="79" viewBox="0 0 73 79" fill="none" xmlns="http://www.w3.org/2000/svg">
<g filter="url(#filter0_d_15_461)">
<path d="M38.5 29C35.5 30.5 33.5 28.5 32 27.5C30.8 26.7 33.5 23.1667 35 21.5L36.5 20.5L39 24.5C39.8333 25.5 40.9 27.8 38.5 29Z" fill="#FFBC00"/>
<path d="M27 47C24.0982 47.4978 21.7402 46.6551 20.2893 46.3232C19.1286 46.0577 18.0491 43.5531 19.5 43L24.6421 44L27.0603 45.3275C27.8664 45.6594 29.3215 46.6017 27 47Z" fill="#FFBC00"/>
<path d="M45.2562 47C48.1581 47.4978 50.516 46.6551 51.9669 46.3232C53.1277 46.0577 54.2071 43.5531 52.7562 43L47.6141 44L45.1959 45.3275C44.3898 45.6594 42.9347 46.6017 45.2562 47Z" fill="#FFBC00"/>
<path d="M29.6147 21.3402V21.3752L29.6779 21.3577L29.6147 21.3402ZM28.0739 45.007C27.6034 44.5984 27.0876 44.2451 26.5366 43.954C26.2628 43.8066 25.9891 43.6557 25.7083 43.5223L24.8414 43.1713C24.2534 42.9793 23.653 42.828 23.0443 42.7185C22.4377 42.6175 21.8237 42.567 21.2086 42.5676C19.9825 42.5461 18.7658 42.7854 17.6392 43.2696L18.6921 43.4556C18.6717 43.6421 18.6635 43.8296 18.6675 44.0172C18.6742 44.3038 18.7071 44.5893 18.7658 44.87C18.8848 45.449 19.1046 46.0027 19.4151 46.5057C19.7446 47.0385 20.1808 47.4973 20.6962 47.8534C21.2257 48.2123 21.8229 48.4595 22.4511 48.5799C23.0526 48.6981 23.6697 48.7136 24.2762 48.6256C24.8541 48.5473 25.42 48.3976 25.961 48.1798C26.8352 47.8223 27.6405 47.3152 28.3406 46.6811C28.9865 47.0532 29.6323 47.4568 30.3097 47.8815C29.7998 46.7615 29.0339 45.7769 28.0739 45.007ZM25.5784 46.8777L24.8414 46.9619C24.5992 46.9619 24.3605 47.0075 24.1394 46.9935C23.6864 47.0125 23.2327 46.9771 22.7881 46.8882C21.9252 46.7237 21.1309 46.3058 20.5067 45.6878C19.8749 45.0458 19.3383 44.3165 18.9132 43.5223C19.6538 43.6592 20.3733 43.7996 21.0788 43.9575C21.6298 44.0839 22.1703 44.2137 22.7038 44.3646C23.2373 44.5155 23.7568 44.6911 24.2833 44.856L25.0554 45.1368C25.3117 45.2315 25.5573 45.3579 25.81 45.4597C26.326 45.6648 26.83 45.8992 27.3193 46.1617C27.5193 46.2635 27.7229 46.3758 27.9229 46.4846C27.0981 46.6179 26.3295 46.7724 25.5784 46.8777ZM32.4401 45.765C32.3676 45.52 32.2334 45.2977 32.0505 45.1193C31.9213 44.9853 31.7763 44.8675 31.6188 44.7683C31.3444 44.583 31.0515 44.4265 30.7449 44.3015C30.1637 44.0538 29.5524 43.8839 28.9268 43.7961C29.3901 44.2208 29.8569 44.6139 30.2816 45.021C30.4864 45.2118 30.6798 45.4146 30.8607 45.6282C30.9358 45.718 31.0028 45.8142 31.0608 45.9159C31.1099 46.0037 31.1169 46.0845 31.0958 46.0634C31.0927 46.0519 31.0927 46.0398 31.0958 46.0283C31.0943 46.0166 31.0943 46.0049 31.0958 45.9932V46.0213L31.0432 46.2424L30.9449 46.6847C30.8782 46.9795 30.8256 47.2778 30.7659 47.5762C30.6536 48.1693 30.5624 48.7695 30.4781 49.3696C30.3124 50.5742 30.2116 51.7869 30.1763 53.0023C30.1308 54.2356 30.199 55.4704 30.3798 56.6912C30.8742 55.5679 31.2631 54.4011 31.5416 53.2059C31.827 52.0381 32.0496 50.856 32.2085 49.6645C32.2822 49.0713 32.3524 48.4746 32.4015 47.8745C32.4226 47.5726 32.4471 47.2707 32.4612 46.9689L32.4857 46.5162V46.288V46.26V46.1897C32.4857 46.1406 32.4857 46.0915 32.4857 46.0458C32.4815 45.9508 32.4662 45.8565 32.4401 45.765ZM41.7131 49.3521C41.6253 48.7519 41.5341 48.1518 41.4218 47.5586C41.3656 47.2603 41.3095 46.9619 41.2428 46.6671L41.1445 46.2248L41.0918 46.0037C41.0932 46.0153 41.0932 46.0272 41.0918 46.0388C41.0941 46.0444 41.0953 46.0504 41.0953 46.0564C41.0953 46.0624 41.0941 46.0684 41.0918 46.074C41.0708 46.095 41.0918 46.0142 41.1269 45.9265C41.1849 45.8248 41.2519 45.7285 41.327 45.6387C41.5082 45.4243 41.7029 45.2215 41.9096 45.0315C42.3343 44.6244 42.7976 44.2313 43.2644 43.8066C42.6378 43.8949 42.0254 44.0648 41.4428 44.312C41.1362 44.4371 40.8433 44.5934 40.5689 44.7788C40.4126 44.8797 40.2679 44.9974 40.1372 45.1297C39.9566 45.3094 39.8239 45.5315 39.7511 45.7756C39.7291 45.8619 39.715 45.95 39.709 46.0388C39.7056 46.0867 39.7056 46.1348 39.709 46.1827V46.281V46.5092L39.73 46.9619C39.73 47.2638 39.7686 47.5656 39.7932 47.8674C39.8424 48.4676 39.909 49.0643 39.9862 49.6575C40.1422 50.8492 40.3637 52.0314 40.6496 53.1988C40.9309 54.3937 41.321 55.5604 41.8149 56.6842C41.9946 55.4633 42.0615 54.2285 42.0149 52.9953C41.9782 51.7765 41.8775 50.5603 41.7131 49.3521ZM54.5275 43.2976C53.3995 42.8135 52.1817 42.5743 50.9544 42.5957C50.3394 42.5953 49.7255 42.6459 49.1188 42.7466C48.5098 42.8561 47.9092 43.0085 47.3218 43.2028L46.4584 43.5538C46.1741 43.6837 45.9003 43.8347 45.6301 43.9821C45.0792 44.2753 44.5625 44.6284 44.0892 45.0351C43.1348 45.8176 42.3754 46.8112 41.871 47.9376C42.5484 47.5094 43.1942 47.1093 43.8401 46.7373C44.5409 47.3721 45.3474 47.8793 46.2232 48.236C46.763 48.4537 47.3277 48.6034 47.9044 48.6817C48.511 48.7698 49.1281 48.7544 49.7295 48.6361C50.3574 48.5145 50.9544 48.2675 51.4844 47.9096C51.9982 47.5527 52.433 47.0939 52.762 46.5618C53.0751 46.0601 53.2951 45.5061 53.4113 44.9262C53.47 44.6455 53.5029 44.36 53.5096 44.0733C53.5149 43.887 53.5078 43.7006 53.4886 43.5153L54.5275 43.2976ZM51.674 45.6878C51.0484 46.3059 50.253 46.7237 49.3891 46.8882C48.9445 46.9771 48.4908 47.0125 48.0378 46.9935C47.8026 46.9935 47.564 46.9655 47.3358 46.9619L46.5988 46.8777C45.8477 46.7724 45.0755 46.6144 44.2647 46.474C44.4683 46.3617 44.6684 46.2529 44.8754 46.1476C45.3639 45.8859 45.8666 45.6516 46.3812 45.4457C46.6374 45.3474 46.8795 45.221 47.1357 45.1262L47.9079 44.8455C48.4309 44.6841 48.9609 44.4945 49.4874 44.3576C50.0138 44.2207 50.5649 44.0768 51.1124 43.9505C51.8144 43.7925 52.5374 43.6522 53.2779 43.5153C52.8518 44.3136 52.3115 45.0455 51.674 45.6878ZM28.0739 45.007C27.6034 44.5984 27.0876 44.2451 26.5366 43.954C26.2628 43.8066 25.9891 43.6557 25.7083 43.5223L24.8414 43.1713C24.2534 42.9793 23.653 42.828 23.0443 42.7185C22.4377 42.6175 21.8237 42.567 21.2086 42.5676C19.9825 42.5461 18.7658 42.7854 17.6392 43.2696L18.6921 43.4556C18.6717 43.6421 18.6635 43.8296 18.6675 44.0172C18.6742 44.3038 18.7071 44.5893 18.7658 44.87C18.8848 45.449 19.1046 46.0027 19.4151 46.5057C19.7446 47.0385 20.1808 47.4973 20.6962 47.8534C21.2257 48.2123 21.8229 48.4595 22.4511 48.5799C23.0526 48.6981 23.6697 48.7136 24.2762 48.6256C24.8541 48.5473 25.42 48.3976 25.961 48.1798C26.8352 47.8223 27.6405 47.3152 28.3406 46.6811C28.9865 47.0532 29.6323 47.4568 30.3097 47.8815C29.7998 46.7615 29.0339 45.7769 28.0739 45.007ZM25.5784 46.8777L24.8414 46.9619C24.5992 46.9619 24.3605 47.0075 24.1394 46.9935C23.6864 47.0125 23.2327 46.9771 22.7881 46.8882C21.9252 46.7237 21.1309 46.3058 20.5067 45.6878C19.8749 45.0458 19.3383 44.3165 18.9132 43.5223C19.6538 43.6592 20.3733 43.7996 21.0788 43.9575C21.6298 44.0839 22.1703 44.2137 22.7038 44.3646C23.2373 44.5155 23.7568 44.6911 24.2833 44.856L25.0554 45.1368C25.3117 45.2315 25.5573 45.3579 25.81 45.4597C26.326 45.6648 26.83 45.8992 27.3193 46.1617C27.5193 46.2635 27.7229 46.3758 27.9229 46.4846C27.0981 46.6179 26.3295 46.7724 25.5784 46.8777ZM32.4401 45.765C32.3676 45.52 32.2334 45.2977 32.0505 45.1193C31.9213 44.9853 31.7763 44.8675 31.6188 44.7683C31.3444 44.583 31.0515 44.4265 30.7449 44.3015C30.1637 44.0538 29.5524 43.8839 28.9268 43.7961C29.3901 44.2208 29.8569 44.6139 30.2816 45.021C30.4864 45.2118 30.6798 45.4146 30.8607 45.6282C30.9358 45.718 31.0028 45.8142 31.0608 45.9159C31.1099 46.0037 31.1169 46.0845 31.0958 46.0634C31.0927 46.0519 31.0927 46.0398 31.0958 46.0283C31.0943 46.0166 31.0943 46.0049 31.0958 45.9932V46.0213L31.0432 46.2424L30.9449 46.6847C30.8782 46.9795 30.8256 47.2778 30.7659 47.5762C30.6536 48.1693 30.5624 48.7695 30.4781 49.3696C30.3124 50.5742 30.2116 51.7869 30.1763 53.0023C30.1308 54.2356 30.199 55.4704 30.3798 56.6912C30.8742 55.5679 31.2631 54.4011 31.5416 53.2059C31.827 52.0381 32.0496 50.856 32.2085 49.6645C32.2822 49.0713 32.3524 48.4746 32.4015 47.8745C32.4226 47.5726 32.4471 47.2707 32.4612 46.9689L32.4857 46.5162V46.288V46.26V46.1897C32.4857 46.1406 32.4857 46.0915 32.4857 46.0458C32.4815 45.9508 32.4662 45.8565 32.4401 45.765ZM41.7131 49.3521C41.6253 48.7519 41.5341 48.1518 41.4218 47.5586C41.3656 47.2603 41.3095 46.9619 41.2428 46.6671L41.1445 46.2248L41.0918 46.0037C41.0932 46.0153 41.0932 46.0272 41.0918 46.0388C41.0941 46.0444 41.0953 46.0504 41.0953 46.0564C41.0953 46.0624 41.0941 46.0684 41.0918 46.074C41.0708 46.095 41.0918 46.0142 41.1269 45.9265C41.1849 45.8248 41.2519 45.7285 41.327 45.6387C41.5082 45.4243 41.7029 45.2215 41.9096 45.0315C42.3343 44.6244 42.7976 44.2313 43.2644 43.8066C42.6378 43.8949 42.0254 44.0648 41.4428 44.312C41.1362 44.4371 40.8433 44.5934 40.5689 44.7788C40.4126 44.8797 40.2679 44.9974 40.1372 45.1297C39.9566 45.3094 39.8239 45.5315 39.7511 45.7756C39.7291 45.8619 39.715 45.95 39.709 46.0388C39.7056 46.0867 39.7056 46.1348 39.709 46.1827V46.281V46.5092L39.73 46.9619C39.73 47.2638 39.7686 47.5656 39.7932 47.8674C39.8424 48.4676 39.909 49.0643 39.9862 49.6575C40.1422 50.8492 40.3637 52.0314 40.6496 53.1988C40.9309 54.3937 41.321 55.5604 41.8149 56.6842C41.9946 55.4633 42.0615 54.2285 42.0149 52.9953C41.9782 51.7765 41.8775 50.5603 41.7131 49.3521ZM54.5275 43.2976C53.3995 42.8135 52.1817 42.5743 50.9544 42.5957C50.3394 42.5953 49.7255 42.6459 49.1188 42.7466C48.5098 42.8561 47.9092 43.0085 47.3218 43.2028L46.4584 43.5538C46.1741 43.6837 45.9003 43.8347 45.6301 43.9821C45.0792 44.2753 44.5625 44.6284 44.0892 45.0351C43.1348 45.8176 42.3754 46.8112 41.871 47.9376C42.5484 47.5094 43.1942 47.1093 43.8401 46.7373C44.5409 47.3721 45.3474 47.8793 46.2232 48.236C46.763 48.4537 47.3277 48.6034 47.9044 48.6817C48.511 48.7698 49.1281 48.7544 49.7295 48.6361C50.3574 48.5145 50.9544 48.2675 51.4844 47.9096C51.9982 47.5527 52.433 47.0939 52.762 46.5618C53.0751 46.0601 53.2951 45.5061 53.4113 44.9262C53.47 44.6455 53.5029 44.36 53.5096 44.0733C53.5149 43.887 53.5078 43.7006 53.4886 43.5153L54.5275 43.2976ZM51.674 45.6878C51.0484 46.3059 50.253 46.7237 49.3891 46.8882C48.9445 46.9771 48.4908 47.0125 48.0378 46.9935C47.8026 46.9935 47.564 46.9655 47.3358 46.9619L46.5988 46.8777C45.8477 46.7724 45.0755 46.6144 44.2647 46.474C44.4683 46.3617 44.6684 46.2529 44.8754 46.1476C45.3639 45.8859 45.8666 45.6516 46.3812 45.4457C46.6374 45.3474 46.8795 45.221 47.1357 45.1262L47.9079 44.8455C48.4309 44.6841 48.9609 44.4945 49.4874 44.3576C50.0138 44.2207 50.5649 44.0768 51.1124 43.9505C51.8144 43.7925 52.5374 43.6522 53.2779 43.5153C52.8518 44.3136 52.3115 45.0455 51.674 45.6878ZM54.5275 43.2976C53.3995 42.8135 52.1817 42.5743 50.9544 42.5957C50.3394 42.5953 49.7255 42.6459 49.1188 42.7466C48.5098 42.8561 47.9092 43.0085 47.3218 43.2028L46.4584 43.5538C46.1741 43.6837 45.9003 43.8347 45.6301 43.9821C45.0792 44.2753 44.5625 44.6284 44.0892 45.0351C43.1348 45.8176 42.3754 46.8112 41.871 47.9376C42.5484 47.5094 43.1942 47.1093 43.8401 46.7373C44.5409 47.3721 45.3474 47.8793 46.2232 48.236C46.763 48.4537 47.3277 48.6034 47.9044 48.6817C48.511 48.7698 49.1281 48.7544 49.7295 48.6361C50.3574 48.5145 50.9544 48.2675 51.4844 47.9096C51.9982 47.5527 52.433 47.0939 52.762 46.5618C53.0751 46.0601 53.2951 45.5061 53.4113 44.9262C53.47 44.6455 53.5029 44.36 53.5096 44.0733C53.5149 43.887 53.5078 43.7006 53.4886 43.5153L54.5275 43.2976ZM51.674 45.6878C51.0484 46.3059 50.253 46.7237 49.3891 46.8882C48.9445 46.9771 48.4908 47.0125 48.0378 46.9935C47.8026 46.9935 47.564 46.9655 47.3358 46.9619L46.5988 46.8777C45.8477 46.7724 45.0755 46.6144 44.2647 46.474C44.4683 46.3617 44.6684 46.2529 44.8754 46.1476C45.3639 45.8859 45.8666 45.6516 46.3812 45.4457C46.6374 45.3474 46.8795 45.221 47.1357 45.1262L47.9079 44.8455C48.4309 44.6841 48.9609 44.4945 49.4874 44.3576C50.0138 44.2207 50.5649 44.0768 51.1124 43.9505C51.8144 43.7925 52.5374 43.6522 53.2779 43.5153C52.8518 44.3136 52.3115 45.0455 51.674 45.6878ZM28.0739 45.007C27.6034 44.5984 27.0876 44.2451 26.5366 43.954C26.2628 43.8066 25.9891 43.6557 25.7083 43.5223L24.8414 43.1713C24.2534 42.9793 23.653 42.828 23.0443 42.7185C22.4377 42.6175 21.8237 42.567 21.2086 42.5676C19.9825 42.5461 18.7658 42.7854 17.6392 43.2696L18.6921 43.4556C18.6717 43.6421 18.6635 43.8296 18.6675 44.0172C18.6742 44.3038 18.7071 44.5893 18.7658 44.87C18.8848 45.449 19.1046 46.0027 19.4151 46.5057C19.7446 47.0385 20.1808 47.4973 20.6962 47.8534C21.2257 48.2123 21.8229 48.4595 22.4511 48.5799C23.0526 48.6981 23.6697 48.7136 24.2762 48.6256C24.8541 48.5473 25.42 48.3976 25.961 48.1798C26.8352 47.8223 27.6405 47.3152 28.3406 46.6811C28.9865 47.0532 29.6323 47.4568 30.3097 47.8815C29.7998 46.7615 29.0339 45.7769 28.0739 45.007ZM25.5784 46.8777L24.8414 46.9619C24.5992 46.9619 24.3605 47.0075 24.1394 46.9935C23.6864 47.0125 23.2327 46.9771 22.7881 46.8882C21.9252 46.7237 21.1309 46.3058 20.5067 45.6878C19.8749 45.0458 19.3383 44.3165 18.9132 43.5223C19.6538 43.6592 20.3733 43.7996 21.0788 43.9575C21.6298 44.0839 22.1703 44.2137 22.7038 44.3646C23.2373 44.5155 23.7568 44.6911 24.2833 44.856L25.0554 45.1368C25.3117 45.2315 25.5573 45.3579 25.81 45.4597C26.326 45.6648 26.83 45.8992 27.3193 46.1617C27.5193 46.2635 27.7229 46.3758 27.9229 46.4846C27.0981 46.6179 26.3295 46.7724 25.5784 46.8777ZM32.4401 45.765C32.3676 45.52 32.2334 45.2977 32.0505 45.1193C31.9213 44.9853 31.7763 44.8675 31.6188 44.7683C31.3444 44.583 31.0515 44.4265 30.7449 44.3015C30.1637 44.0538 29.5524 43.8839 28.9268 43.7961C29.3901 44.2208 29.8569 44.6139 30.2816 45.021C30.4864 45.2118 30.6798 45.4146 30.8607 45.6282C30.9358 45.718 31.0028 45.8142 31.0608 45.9159C31.1099 46.0037 31.1169 46.0845 31.0958 46.0634C31.0927 46.0519 31.0927 46.0398 31.0958 46.0283C31.0943 46.0166 31.0943 46.0049 31.0958 45.9932V46.0213L31.0432 46.2424L30.9449 46.6847C30.8782 46.9795 30.8256 47.2778 30.7659 47.5762C30.6536 48.1693 30.5624 48.7695 30.4781 49.3696C30.3124 50.5742 30.2116 51.7869 30.1763 53.0023C30.1308 54.2356 30.199 55.4704 30.3798 56.6912C30.8742 55.5679 31.2631 54.4011 31.5416 53.2059C31.827 52.0381 32.0496 50.856 32.2085 49.6645C32.2822 49.0713 32.3524 48.4746 32.4015 47.8745C32.4226 47.5726 32.4471 47.2707 32.4612 46.9689L32.4857 46.5162V46.288V46.26V46.1897C32.4857 46.1406 32.4857 46.0915 32.4857 46.0458C32.4815 45.9508 32.4662 45.8565 32.4401 45.765ZM41.7131 49.3521C41.6253 48.7519 41.5341 48.1518 41.4218 47.5586C41.3656 47.2603 41.3095 46.9619 41.2428 46.6671L41.1445 46.2248L41.0918 46.0037C41.0932 46.0153 41.0932 46.0272 41.0918 46.0388C41.0941 46.0444 41.0953 46.0504 41.0953 46.0564C41.0953 46.0624 41.0941 46.0684 41.0918 46.074C41.0708 46.095 41.0918 46.0142 41.1269 45.9265C41.1849 45.8248 41.2519 45.7285 41.327 45.6387C41.5082 45.4243 41.7029 45.2215 41.9096 45.0315C42.3343 44.6244 42.7976 44.2313 43.2644 43.8066C42.6378 43.8949 42.0254 44.0648 41.4428 44.312C41.1362 44.4371 40.8433 44.5934 40.5689 44.7788C40.4126 44.8797 40.2679 44.9974 40.1372 45.1297C39.9566 45.3094 39.8239 45.5315 39.7511 45.7756C39.7291 45.8619 39.715 45.95 39.709 46.0388C39.7056 46.0867 39.7056 46.1348 39.709 46.1827V46.281V46.5092L39.73 46.9619C39.73 47.2638 39.7686 47.5656 39.7932 47.8674C39.8424 48.4676 39.909 49.0643 39.9862 49.6575C40.1422 50.8492 40.3637 52.0314 40.6496 53.1988C40.9309 54.3937 41.321 55.5604 41.8149 56.6842C41.9946 55.4633 42.0615 54.2285 42.0149 52.9953C41.9782 51.7765 41.8775 50.5603 41.7131 49.3521ZM54.5275 43.2976C53.3995 42.8135 52.1817 42.5743 50.9544 42.5957C50.3394 42.5953 49.7255 42.6459 49.1188 42.7466C48.5098 42.8561 47.9092 43.0085 47.3218 43.2028L46.4584 43.5538C46.1741 43.6837 45.9003 43.8347 45.6301 43.9821C45.0792 44.2753 44.5625 44.6284 44.0892 45.0351C43.1348 45.8176 42.3754 46.8112 41.871 47.9376C42.5484 47.5094 43.1942 47.1093 43.8401 46.7373C44.5409 47.3721 45.3474 47.8793 46.2232 48.236C46.763 48.4537 47.3277 48.6034 47.9044 48.6817C48.511 48.7698 49.1281 48.7544 49.7295 48.6361C50.3574 48.5145 50.9544 48.2675 51.4844 47.9096C51.9982 47.5527 52.433 47.0939 52.762 46.5618C53.0751 46.0601 53.2951 45.5061 53.4113 44.9262C53.47 44.6455 53.5029 44.36 53.5096 44.0733C53.5149 43.887 53.5078 43.7006 53.4886 43.5153L54.5275 43.2976ZM51.674 45.6878C51.0484 46.3059 50.253 46.7237 49.3891 46.8882C48.9445 46.9771 48.4908 47.0125 48.0378 46.9935C47.8026 46.9935 47.564 46.9655 47.3358 46.9619L46.5988 46.8777C45.8477 46.7724 45.0755 46.6144 44.2647 46.474C44.4683 46.3617 44.6684 46.2529 44.8754 46.1476C45.3639 45.8859 45.8666 45.6516 46.3812 45.4457C46.6374 45.3474 46.8795 45.221 47.1357 45.1262L47.9079 44.8455C48.4309 44.6841 48.9609 44.4945 49.4874 44.3576C50.0138 44.2207 50.5649 44.0768 51.1124 43.9505C51.8144 43.7925 52.5374 43.6522 53.2779 43.5153C52.8518 44.3136 52.3115 45.0455 51.674 45.6878ZM54.5275 43.2976C53.3995 42.8135 52.1817 42.5743 50.9544 42.5957C50.3394 42.5953 49.7255 42.6459 49.1188 42.7466C48.5098 42.8561 47.9092 43.0085 47.3218 43.2028L46.4584 43.5538C46.1741 43.6837 45.9003 43.8347 45.6301 43.9821C45.0792 44.2753 44.5625 44.6284 44.0892 45.0351C43.1348 45.8176 42.3754 46.8112 41.871 47.9376C42.5484 47.5094 43.1942 47.1093 43.8401 46.7373C44.5409 47.3721 45.3474 47.8793 46.2232 48.236C46.763 48.4537 47.3277 48.6034 47.9044 48.6817C48.511 48.7698 49.1281 48.7544 49.7295 48.6361C50.3574 48.5145 50.9544 48.2675 51.4844 47.9096C51.9982 47.5527 52.433 47.0939 52.762 46.5618C53.0751 46.0601 53.2951 45.5061 53.4113 44.9262C53.47 44.6455 53.5029 44.36 53.5096 44.0733C53.5149 43.887 53.5078 43.7006 53.4886 43.5153L54.5275 43.2976ZM51.674 45.6878C51.0484 46.3059 50.253 46.7237 49.3891 46.8882C48.9445 46.9771 48.4908 47.0125 48.0378 46.9935C47.8026 46.9935 47.564 46.9655 47.3358 46.9619L46.5988 46.8777C45.8477 46.7724 45.0755 46.6144 44.2647 46.474C44.4683 46.3617 44.6684 46.2529 44.8754 46.1476C45.3639 45.8859 45.8666 45.6516 46.3812 45.4457C46.6374 45.3474 46.8795 45.221 47.1357 45.1262L47.9079 44.8455C48.4309 44.6841 48.9609 44.4945 49.4874 44.3576C50.0138 44.2207 50.5649 44.0768 51.1124 43.9505C51.8144 43.7925 52.5374 43.6522 53.2779 43.5153C52.8518 44.3136 52.3115 45.0455 51.674 45.6878ZM41.7131 49.3521C41.6253 48.7519 41.5341 48.1518 41.4218 47.5586C41.3656 47.2603 41.3095 46.9619 41.2428 46.6671L41.1445 46.2248L41.0918 46.0037C41.0932 46.0153 41.0932 46.0272 41.0918 46.0388C41.0941 46.0444 41.0953 46.0504 41.0953 46.0564C41.0953 46.0624 41.0941 46.0684 41.0918 46.074C41.0708 46.095 41.0918 46.0142 41.1269 45.9265C41.1849 45.8248 41.2519 45.7285 41.327 45.6387C41.5082 45.4243 41.7029 45.2215 41.9096 45.0315C42.3343 44.6244 42.7976 44.2313 43.2644 43.8066C42.6378 43.8949 42.0254 44.0648 41.4428 44.312C41.1362 44.4371 40.8433 44.5934 40.5689 44.7788C40.4126 44.8797 40.2679 44.9974 40.1372 45.1297C39.9566 45.3094 39.8239 45.5315 39.7511 45.7756C39.7291 45.8619 39.715 45.95 39.709 46.0388C39.7056 46.0867 39.7056 46.1348 39.709 46.1827V46.281V46.5092L39.73 46.9619C39.73 47.2638 39.7686 47.5656 39.7932 47.8674C39.8424 48.4676 39.909 49.0643 39.9862 49.6575C40.1422 50.8492 40.3637 52.0314 40.6496 53.1988C40.9309 54.3937 41.321 55.5604 41.8149 56.6842C41.9946 55.4633 42.0615 54.2285 42.0149 52.9953C41.9782 51.7765 41.8775 50.5603 41.7131 49.3521ZM32.4401 45.765C32.3676 45.52 32.2334 45.2977 32.0505 45.1193C31.9213 44.9853 31.7763 44.8675 31.6188 44.7683C31.3444 44.583 31.0515 44.4265 30.7449 44.3015C30.1637 44.0538 29.5524 43.8839 28.9268 43.7961C29.3901 44.2208 29.8569 44.6139 30.2816 45.021C30.4864 45.2118 30.6798 45.4146 30.8607 45.6282C30.9358 45.718 31.0028 45.8142 31.0608 45.9159C31.1099 46.0037 31.1169 46.0845 31.0958 46.0634C31.0927 46.0519 31.0927 46.0398 31.0958 46.0283C31.0943 46.0166 31.0943 46.0049 31.0958 45.9932V46.0213L31.0432 46.2424L30.9449 46.6847C30.8782 46.9795 30.8256 47.2778 30.7659 47.5762C30.6536 48.1693 30.5624 48.7695 30.4781 49.3696C30.3124 50.5742 30.2116 51.7869 30.1763 53.0023C30.1308 54.2356 30.199 55.4704 30.3798 56.6912C30.8742 55.5679 31.2631 54.4011 31.5416 53.2059C31.827 52.0381 32.0496 50.856 32.2085 49.6645C32.2822 49.0713 32.3524 48.4746 32.4015 47.8745C32.4226 47.5726 32.4471 47.2707 32.4612 46.9689L32.4857 46.5162V46.288V46.26V46.1897C32.4857 46.1406 32.4857 46.0915 32.4857 46.0458C32.4815 45.9508 32.4662 45.8565 32.4401 45.765ZM28.0739 45.007C27.6034 44.5984 27.0876 44.2451 26.5366 43.954C26.2628 43.8066 25.9891 43.6557 25.7083 43.5223L24.8414 43.1713C24.2534 42.9793 23.653 42.828 23.0443 42.7185C22.4377 42.6175 21.8237 42.567 21.2086 42.5676C19.9825 42.5461 18.7658 42.7854 17.6392 43.2696L18.6921 43.4556C18.6717 43.6421 18.6635 43.8296 18.6675 44.0172C18.6742 44.3038 18.7071 44.5893 18.7658 44.87C18.8848 45.449 19.1046 46.0027 19.4151 46.5057C19.7446 47.0385 20.1808 47.4973 20.6962 47.8534C21.2257 48.2123 21.8229 48.4595 22.4511 48.5799C23.0526 48.6981 23.6697 48.7136 24.2762 48.6256C24.8541 48.5473 25.42 48.3976 25.961 48.1798C26.8352 47.8223 27.6405 47.3152 28.3406 46.6811C28.9865 47.0532 29.6323 47.4568 30.3097 47.8815C29.7998 46.7615 29.0339 45.7769 28.0739 45.007ZM25.5784 46.8777L24.8414 46.9619C24.5992 46.9619 24.3605 47.0075 24.1394 46.9935C23.6864 47.0125 23.2327 46.9771 22.7881 46.8882C21.9252 46.7237 21.1309 46.3058 20.5067 45.6878C19.8749 45.0458 19.3383 44.3165 18.9132 43.5223C19.6538 43.6592 20.3733 43.7996 21.0788 43.9575C21.6298 44.0839 22.1703 44.2137 22.7038 44.3646C23.2373 44.5155 23.7568 44.6911 24.2833 44.856L25.0554 45.1368C25.3117 45.2315 25.5573 45.3579 25.81 45.4597C26.326 45.6648 26.83 45.8992 27.3193 46.1617C27.5193 46.2635 27.7229 46.3758 27.9229 46.4846C27.0981 46.6179 26.3295 46.7724 25.5784 46.8777ZM28.0739 45.007C27.6034 44.5984 27.0876 44.2451 26.5366 43.954C26.2628 43.8066 25.9891 43.6557 25.7083 43.5223L24.8414 43.1713C24.2534 42.9793 23.653 42.828 23.0443 42.7185C22.4377 42.6175 21.8237 42.567 21.2086 42.5676C19.9825 42.5461 18.7658 42.7854 17.6392 43.2696L18.6921 43.4556C18.6717 43.6421 18.6635 43.8296 18.6675 44.0172C18.6742 44.3038 18.7071 44.5893 18.7658 44.87C18.8848 45.449 19.1046 46.0027 19.4151 46.5057C19.7446 47.0385 20.1808 47.4973 20.6962 47.8534C21.2257 48.2123 21.8229 48.4595 22.4511 48.5799C23.0526 48.6981 23.6697 48.7136 24.2762 48.6256C24.8541 48.5473 25.42 48.3976 25.961 48.1798C26.8352 47.8223 27.6405 47.3152 28.3406 46.6811C28.9865 47.0532 29.6323 47.4568 30.3097 47.8815C29.7998 46.7615 29.0339 45.7769 28.0739 45.007ZM25.5784 46.8777L24.8414 46.9619C24.5992 46.9619 24.3605 47.0075 24.1394 46.9935C23.6864 47.0125 23.2327 46.9771 22.7881 46.8882C21.9252 46.7237 21.1309 46.3058 20.5067 45.6878C19.8749 45.0458 19.3383 44.3165 18.9132 43.5223C19.6538 43.6592 20.3733 43.7996 21.0788 43.9575C21.6298 44.0839 22.1703 44.2137 22.7038 44.3646C23.2373 44.5155 23.7568 44.6911 24.2833 44.856L25.0554 45.1368C25.3117 45.2315 25.5573 45.3579 25.81 45.4597C26.326 45.6648 26.83 45.8992 27.3193 46.1617C27.5193 46.2635 27.7229 46.3758 27.9229 46.4846C27.0981 46.6179 26.3295 46.7724 25.5784 46.8777ZM32.4401 45.765C32.3676 45.52 32.2334 45.2977 32.0505 45.1193C31.9213 44.9853 31.7763 44.8675 31.6188 44.7683C31.3444 44.583 31.0515 44.4265 30.7449 44.3015C30.1637 44.0538 29.5524 43.8839 28.9268 43.7961C29.3901 44.2208 29.8569 44.6139 30.2816 45.021C30.4864 45.2118 30.6798 45.4146 30.8607 45.6282C30.9358 45.718 31.0028 45.8142 31.0608 45.9159C31.1099 46.0037 31.1169 46.0845 31.0958 46.0634C31.0927 46.0519 31.0927 46.0398 31.0958 46.0283C31.0943 46.0166 31.0943 46.0049 31.0958 45.9932V46.0213L31.0432 46.2424L30.9449 46.6847C30.8782 46.9795 30.8256 47.2778 30.7659 47.5762C30.6536 48.1693 30.5624 48.7695 30.4781 49.3696C30.3124 50.5742 30.2116 51.7869 30.1763 53.0023C30.1308 54.2356 30.199 55.4704 30.3798 56.6912C30.8742 55.5679 31.2631 54.4011 31.5416 53.2059C31.827 52.0381 32.0496 50.856 32.2085 49.6645C32.2822 49.0713 32.3524 48.4746 32.4015 47.8745C32.4226 47.5726 32.4471 47.2707 32.4612 46.9689L32.4857 46.5162V46.288V46.26V46.1897C32.4857 46.1406 32.4857 46.0915 32.4857 46.0458C32.4815 45.9508 32.4662 45.8565 32.4401 45.765ZM41.7131 49.3521C41.6253 48.7519 41.5341 48.1518 41.4218 47.5586C41.3656 47.2603 41.3095 46.9619 41.2428 46.6671L41.1445 46.2248L41.0918 46.0037C41.0932 46.0153 41.0932 46.0272 41.0918 46.0388C41.0941 46.0444 41.0953 46.0504 41.0953 46.0564C41.0953 46.0624 41.0941 46.0684 41.0918 46.074C41.0708 46.095 41.0918 46.0142 41.1269 45.9265C41.1849 45.8248 41.2519 45.7285 41.327 45.6387C41.5082 45.4243 41.7029 45.2215 41.9096 45.0315C42.3343 44.6244 42.7976 44.2313 43.2644 43.8066C42.6378 43.8949 42.0254 44.0648 41.4428 44.312C41.1362 44.4371 40.8433 44.5934 40.5689 44.7788C40.4126 44.8797 40.2679 44.9974 40.1372 45.1297C39.9566 45.3094 39.8239 45.5315 39.7511 45.7756C39.7291 45.8619 39.715 45.95 39.709 46.0388C39.7056 46.0867 39.7056 46.1348 39.709 46.1827V46.281V46.5092L39.73 46.9619C39.73 47.2638 39.7686 47.5656 39.7932 47.8674C39.8424 48.4676 39.909 49.0643 39.9862 49.6575C40.1422 50.8492 40.3637 52.0314 40.6496 53.1988C40.9309 54.3937 41.321 55.5604 41.8149 56.6842C41.9946 55.4633 42.0615 54.2285 42.0149 52.9953C41.9782 51.7765 41.8775 50.5603 41.7131 49.3521ZM54.5275 43.2976C53.3995 42.8135 52.1817 42.5743 50.9544 42.5957C50.3394 42.5953 49.7255 42.6459 49.1188 42.7466C48.5098 42.8561 47.9092 43.0085 47.3218 43.2028L46.4584 43.5538C46.1741 43.6837 45.9003 43.8347 45.6301 43.9821C45.0792 44.2753 44.5625 44.6284 44.0892 45.0351C43.1348 45.8176 42.3754 46.8112 41.871 47.9376C42.5484 47.5094 43.1942 47.1093 43.8401 46.7373C44.5409 47.3721 45.3474 47.8793 46.2232 48.236C46.763 48.4537 47.3277 48.6034 47.9044 48.6817C48.511 48.7698 49.1281 48.7544 49.7295 48.6361C50.3574 48.5145 50.9544 48.2675 51.4844 47.9096C51.9982 47.5527 52.433 47.0939 52.762 46.5618C53.0751 46.0601 53.2951 45.5061 53.4113 44.9262C53.47 44.6455 53.5029 44.36 53.5096 44.0733C53.5149 43.887 53.5078 43.7006 53.4886 43.5153L54.5275 43.2976ZM51.674 45.6878C51.0484 46.3059 50.253 46.7237 49.3891 46.8882C48.9445 46.9771 48.4908 47.0125 48.0378 46.9935C47.8026 46.9935 47.564 46.9655 47.3358 46.9619L46.5988 46.8777C45.8477 46.7724 45.0755 46.6144 44.2647 46.474C44.4683 46.3617 44.6684 46.2529 44.8754 46.1476C45.3639 45.8859 45.8666 45.6516 46.3812 45.4457C46.6374 45.3474 46.8795 45.221 47.1357 45.1262L47.9079 44.8455C48.4309 44.6841 48.9609 44.4945 49.4874 44.3576C50.0138 44.2207 50.5649 44.0768 51.1124 43.9505C51.8144 43.7925 52.5374 43.6522 53.2779 43.5153C52.8518 44.3136 52.3115 45.0455 51.674 45.6878ZM54.5275 43.2976C53.3995 42.8135 52.1817 42.5743 50.9544 42.5957C50.3394 42.5953 49.7255 42.6459 49.1188 42.7466C48.5098 42.8561 47.9092 43.0085 47.3218 43.2028L46.4584 43.5538C46.1741 43.6837 45.9003 43.8347 45.6301 43.9821C45.0792 44.2753 44.5625 44.6284 44.0892 45.0351C43.1348 45.8176 42.3754 46.8112 41.871 47.9376C42.5484 47.5094 43.1942 47.1093 43.8401 46.7373C44.5409 47.3721 45.3474 47.8793 46.2232 48.236C46.763 48.4537 47.3277 48.6034 47.9044 48.6817C48.511 48.7698 49.1281 48.7544 49.7295 48.6361C50.3574 48.5145 50.9544 48.2675 51.4844 47.9096C51.9982 47.5527 52.433 47.0939 52.762 46.5618C53.0751 46.0601 53.2951 45.5061 53.4113 44.9262C53.47 44.6455 53.5029 44.36 53.5096 44.0733C53.5149 43.887 53.5078 43.7006 53.4886 43.5153L54.5275 43.2976ZM51.674 45.6878C51.0484 46.3059 50.253 46.7237 49.3891 46.8882C48.9445 46.9771 48.4908 47.0125 48.0378 46.9935C47.8026 46.9935 47.564 46.9655 47.3358 46.9619L46.5988 46.8777C45.8477 46.7724 45.0755 46.6144 44.2647 46.474C44.4683 46.3617 44.6684 46.2529 44.8754 46.1476C45.3639 45.8859 45.8666 45.6516 46.3812 45.4457C46.6374 45.3474 46.8795 45.221 47.1357 45.1262L47.9079 44.8455C48.4309 44.6841 48.9609 44.4945 49.4874 44.3576C50.0138 44.2207 50.5649 44.0768 51.1124 43.9505C51.8144 43.7925 52.5374 43.6522 53.2779 43.5153C52.8518 44.3136 52.3115 45.0455 51.674 45.6878ZM41.7131 49.3521C41.6253 48.7519 41.5341 48.1518 41.4218 47.5586C41.3656 47.2603 41.3095 46.9619 41.2428 46.6671L41.1445 46.2248L41.0918 46.0037C41.0932 46.0153 41.0932 46.0272 41.0918 46.0388C41.0941 46.0444 41.0953 46.0504 41.0953 46.0564C41.0953 46.0624 41.0941 46.0684 41.0918 46.074C41.0708 46.095 41.0918 46.0142 41.1269 45.9265C41.1849 45.8248 41.2519 45.7285 41.327 45.6387C41.5082 45.4243 41.7029 45.2215 41.9096 45.0315C42.3343 44.6244 42.7976 44.2313 43.2644 43.8066C42.6378 43.8949 42.0254 44.0648 41.4428 44.312C41.1362 44.4371 40.8433 44.5934 40.5689 44.7788C40.4126 44.8797 40.2679 44.9974 40.1372 45.1297C39.9566 45.3094 39.8239 45.5315 39.7511 45.7756C39.7291 45.8619 39.715 45.95 39.709 46.0388C39.7056 46.0867 39.7056 46.1348 39.709 46.1827V46.281V46.5092L39.73 46.9619C39.73 47.2638 39.7686 47.5656 39.7932 47.8674C39.8424 48.4676 39.909 49.0643 39.9862 49.6575C40.1422 50.8492 40.3637 52.0314 40.6496 53.1988C40.9309 54.3937 41.321 55.5604 41.8149 56.6842C41.9946 55.4633 42.0615 54.2285 42.0149 52.9953C41.9782 51.7765 41.8775 50.5603 41.7131 49.3521ZM32.4401 45.765C32.3676 45.52 32.2334 45.2977 32.0505 45.1193C31.9213 44.9853 31.7763 44.8675 31.6188 44.7683C31.3444 44.583 31.0515 44.4265 30.7449 44.3015C30.1637 44.0538 29.5524 43.8839 28.9268 43.7961C29.3901 44.2208 29.8569 44.6139 30.2816 45.021C30.4864 45.2118 30.6798 45.4146 30.8607 45.6282C30.9358 45.718 31.0028 45.8142 31.0608 45.9159C31.1099 46.0037 31.1169 46.0845 31.0958 46.0634C31.0927 46.0519 31.0927 46.0398 31.0958 46.0283C31.0943 46.0166 31.0943 46.0049 31.0958 45.9932V46.0213L31.0432 46.2424L30.9449 46.6847C30.8782 46.9795 30.8256 47.2778 30.7659 47.5762C30.6536 48.1693 30.5624 48.7695 30.4781 49.3696C30.3124 50.5742 30.2116 51.7869 30.1763 53.0023C30.1308 54.2356 30.199 55.4704 30.3798 56.6912C30.8742 55.5679 31.2631 54.4011 31.5416 53.2059C31.827 52.0381 32.0496 50.856 32.2085 49.6645C32.2822 49.0713 32.3524 48.4746 32.4015 47.8745C32.4226 47.5726 32.4471 47.2707 32.4612 46.9689L32.4857 46.5162V46.288V46.26V46.1897C32.4857 46.1406 32.4857 46.0915 32.4857 46.0458C32.4815 45.9508 32.4662 45.8565 32.4401 45.765ZM28.0739 45.007C27.6034 44.5984 27.0876 44.2451 26.5366 43.954C26.2628 43.8066 25.9891 43.6557 25.7083 43.5223L24.8414 43.1713C24.2534 42.9793 23.653 42.828 23.0443 42.7185C22.4377 42.6175 21.8237 42.567 21.2086 42.5676C19.9825 42.5461 18.7658 42.7854 17.6392 43.2696L18.6921 43.4556C18.6717 43.6421 18.6635 43.8296 18.6675 44.0172C18.6742 44.3038 18.7071 44.5893 18.7658 44.87C18.8848 45.449 19.1046 46.0027 19.4151 46.5057C19.7446 47.0385 20.1808 47.4973 20.6962 47.8534C21.2257 48.2123 21.8229 48.4595 22.4511 48.5799C23.0526 48.6981 23.6697 48.7136 24.2762 48.6256C24.8541 48.5473 25.42 48.3976 25.961 48.1798C26.8352 47.8223 27.6405 47.3152 28.3406 46.6811C28.9865 47.0532 29.6323 47.4568 30.3097 47.8815C29.7998 46.7615 29.0339 45.7769 28.0739 45.007ZM25.5784 46.8777L24.8414 46.9619C24.5992 46.9619 24.3605 47.0075 24.1394 46.9935C23.6864 47.0125 23.2327 46.9771 22.7881 46.8882C21.9252 46.7237 21.1309 46.3058 20.5067 45.6878C19.8749 45.0458 19.3383 44.3165 18.9132 43.5223C19.6538 43.6592 20.3733 43.7996 21.0788 43.9575C21.6298 44.0839 22.1703 44.2137 22.7038 44.3646C23.2373 44.5155 23.7568 44.6911 24.2833 44.856L25.0554 45.1368C25.3117 45.2315 25.5573 45.3579 25.81 45.4597C26.326 45.6648 26.83 45.8992 27.3193 46.1617C27.5193 46.2635 27.7229 46.3758 27.9229 46.4846C27.0981 46.6179 26.3295 46.7724 25.5784 46.8777ZM28.0739 45.007C27.6034 44.5984 27.0876 44.2451 26.5366 43.954C26.2628 43.8066 25.9891 43.6557 25.7083 43.5223L24.8414 43.1713C24.2534 42.9793 23.653 42.828 23.0443 42.7185C22.4377 42.6175 21.8237 42.567 21.2086 42.5676C19.9825 42.5461 18.7658 42.7854 17.6392 43.2696L18.6921 43.4556C18.6717 43.6421 18.6635 43.8296 18.6675 44.0172C18.6742 44.3038 18.7071 44.5893 18.7658 44.87C18.8848 45.449 19.1046 46.0027 19.4151 46.5057C19.7446 47.0385 20.1808 47.4973 20.6962 47.8534C21.2257 48.2123 21.8229 48.4595 22.4511 48.5799C23.0526 48.6981 23.6697 48.7136 24.2762 48.6256C24.8541 48.5473 25.42 48.3976 25.961 48.1798C26.8352 47.8223 27.6405 47.3152 28.3406 46.6811C28.9865 47.0532 29.6323 47.4568 30.3097 47.8815C29.7998 46.7615 29.0339 45.7769 28.0739 45.007ZM25.5784 46.8777L24.8414 46.9619C24.5992 46.9619 24.3605 47.0075 24.1394 46.9935C23.6864 47.0125 23.2327 46.9771 22.7881 46.8882C21.9252 46.7237 21.1309 46.3058 20.5067 45.6878C19.8749 45.0458 19.3383 44.3165 18.9132 43.5223C19.6538 43.6592 20.3733 43.7996 21.0788 43.9575C21.6298 44.0839 22.1703 44.2137 22.7038 44.3646C23.2373 44.5155 23.7568 44.6911 24.2833 44.856L25.0554 45.1368C25.3117 45.2315 25.5573 45.3579 25.81 45.4597C26.326 45.6648 26.83 45.8992 27.3193 46.1617C27.5193 46.2635 27.7229 46.3758 27.9229 46.4846C27.0981 46.6179 26.3295 46.7724 25.5784 46.8777ZM32.4401 45.765C32.3676 45.52 32.2334 45.2977 32.0505 45.1193C31.9213 44.9853 31.7763 44.8675 31.6188 44.7683C31.3444 44.583 31.0515 44.4265 30.7449 44.3015C30.1637 44.0538 29.5524 43.8839 28.9268 43.7961C29.3901 44.2208 29.8569 44.6139 30.2816 45.021C30.4864 45.2118 30.6798 45.4146 30.8607 45.6282C30.9358 45.718 31.0028 45.8142 31.0608 45.9159C31.1099 46.0037 31.1169 46.0845 31.0958 46.0634C31.0927 46.0519 31.0927 46.0398 31.0958 46.0283C31.0943 46.0166 31.0943 46.0049 31.0958 45.9932V46.0213L31.0432 46.2424L30.9449 46.6847C30.8782 46.9795 30.8256 47.2778 30.7659 47.5762C30.6536 48.1693 30.5624 48.7695 30.4781 49.3696C30.3124 50.5742 30.2116 51.7869 30.1763 53.0023C30.1308 54.2356 30.199 55.4704 30.3798 56.6912C30.8742 55.5679 31.2631 54.4011 31.5416 53.2059C31.827 52.0381 32.0496 50.856 32.2085 49.6645C32.2822 49.0713 32.3524 48.4746 32.4015 47.8745C32.4226 47.5726 32.4471 47.2707 32.4612 46.9689L32.4857 46.5162V46.288V46.26V46.1897C32.4857 46.1406 32.4857 46.0915 32.4857 46.0458C32.4815 45.9508 32.4662 45.8565 32.4401 45.765ZM41.7131 49.3521C41.6253 48.7519 41.5341 48.1518 41.4218 47.5586C41.3656 47.2603 41.3095 46.9619 41.2428 46.6671L41.1445 46.2248L41.0918 46.0037C41.0932 46.0153 41.0932 46.0272 41.0918 46.0388C41.0941 46.0444 41.0953 46.0504 41.0953 46.0564C41.0953 46.0624 41.0941 46.0684 41.0918 46.074C41.0708 46.095 41.0918 46.0142 41.1269 45.9265C41.1849 45.8248 41.2519 45.7285 41.327 45.6387C41.5082 45.4243 41.7029 45.2215 41.9096 45.0315C42.3343 44.6244 42.7976 44.2313 43.2644 43.8066C42.6378 43.8949 42.0254 44.0648 41.4428 44.312C41.1362 44.4371 40.8433 44.5934 40.5689 44.7788C40.4126 44.8797 40.2679 44.9974 40.1372 45.1297C39.9566 45.3094 39.8239 45.5315 39.7511 45.7756C39.7291 45.8619 39.715 45.95 39.709 46.0388C39.7056 46.0867 39.7056 46.1348 39.709 46.1827V46.281V46.5092L39.73 46.9619C39.73 47.2638 39.7686 47.5656 39.7932 47.8674C39.8424 48.4676 39.909 49.0643 39.9862 49.6575C40.1422 50.8492 40.3637 52.0314 40.6496 53.1988C40.9309 54.3937 41.321 55.5604 41.8149 56.6842C41.9946 55.4633 42.0615 54.2285 42.0149 52.9953C41.9782 51.7765 41.8775 50.5603 41.7131 49.3521ZM54.5275 43.2976C53.3995 42.8135 52.1817 42.5743 50.9544 42.5957C50.3394 42.5953 49.7255 42.6459 49.1188 42.7466C48.5098 42.8561 47.9092 43.0085 47.3218 43.2028L46.4584 43.5538C46.1741 43.6837 45.9003 43.8347 45.6301 43.9821C45.0792 44.2753 44.5625 44.6284 44.0892 45.0351C43.1348 45.8176 42.3754 46.8112 41.871 47.9376C42.5484 47.5094 43.1942 47.1093 43.8401 46.7373C44.5409 47.3721 45.3474 47.8793 46.2232 48.236C46.763 48.4537 47.3277 48.6034 47.9044 48.6817C48.511 48.7698 49.1281 48.7544 49.7295 48.6361C50.3574 48.5145 50.9544 48.2675 51.4844 47.9096C51.9982 47.5527 52.433 47.0939 52.762 46.5618C53.0751 46.0601 53.2951 45.5061 53.4113 44.9262C53.47 44.6455 53.5029 44.36 53.5096 44.0733C53.5149 43.887 53.5078 43.7006 53.4886 43.5153L54.5275 43.2976ZM51.674 45.6878C51.0484 46.3059 50.253 46.7237 49.3891 46.8882C48.9445 46.9771 48.4908 47.0125 48.0378 46.9935C47.8026 46.9935 47.564 46.9655 47.3358 46.9619L46.5988 46.8777C45.8477 46.7724 45.0755 46.6144 44.2647 46.474C44.4683 46.3617 44.6684 46.2529 44.8754 46.1476C45.3639 45.8859 45.8666 45.6516 46.3812 45.4457C46.6374 45.3474 46.8795 45.221 47.1357 45.1262L47.9079 44.8455C48.4309 44.6841 48.9609 44.4945 49.4874 44.3576C50.0138 44.2207 50.5649 44.0768 51.1124 43.9505C51.8144 43.7925 52.5374 43.6522 53.2779 43.5153C52.8518 44.3136 52.3115 45.0455 51.674 45.6878ZM54.5275 43.2976C53.3995 42.8135 52.1817 42.5743 50.9544 42.5957C50.3394 42.5953 49.7255 42.6459 49.1188 42.7466C48.5098 42.8561 47.9092 43.0085 47.3218 43.2028L46.4584 43.5538C46.1741 43.6837 45.9003 43.8347 45.6301 43.9821C45.0792 44.2753 44.5625 44.6284 44.0892 45.0351C43.1348 45.8176 42.3754 46.8112 41.871 47.9376C42.5484 47.5094 43.1942 47.1093 43.8401 46.7373C44.5409 47.3721 45.3474 47.8793 46.2232 48.236C46.763 48.4537 47.3277 48.6034 47.9044 48.6817C48.511 48.7698 49.1281 48.7544 49.7295 48.6361C50.3574 48.5145 50.9544 48.2675 51.4844 47.9096C51.9982 47.5527 52.433 47.0939 52.762 46.5618C53.0751 46.0601 53.2951 45.5061 53.4113 44.9262C53.47 44.6455 53.5029 44.36 53.5096 44.0733C53.5149 43.887 53.5078 43.7006 53.4886 43.5153L54.5275 43.2976ZM51.674 45.6878C51.0484 46.3059 50.253 46.7237 49.3891 46.8882C48.9445 46.9771 48.4908 47.0125 48.0378 46.9935C47.8026 46.9935 47.564 46.9655 47.3358 46.9619L46.5988 46.8777C45.8477 46.7724 45.0755 46.6144 44.2647 46.474C44.4683 46.3617 44.6684 46.2529 44.8754 46.1476C45.3639 45.8859 45.8666 45.6516 46.3812 45.4457C46.6374 45.3474 46.8795 45.221 47.1357 45.1262L47.9079 44.8455C48.4309 44.6841 48.9609 44.4945 49.4874 44.3576C50.0138 44.2207 50.5649 44.0768 51.1124 43.9505C51.8144 43.7925 52.5374 43.6522 53.2779 43.5153C52.8518 44.3136 52.3115 45.0455 51.674 45.6878ZM41.7131 49.3521C41.6253 48.7519 41.5341 48.1518 41.4218 47.5586C41.3656 47.2603 41.3095 46.9619 41.2428 46.6671L41.1445 46.2248L41.0918 46.0037C41.0932 46.0153 41.0932 46.0272 41.0918 46.0388C41.0941 46.0444 41.0953 46.0504 41.0953 46.0564C41.0953 46.0624 41.0941 46.0684 41.0918 46.074C41.0708 46.095 41.0918 46.0142 41.1269 45.9265C41.1849 45.8248 41.2519 45.7285 41.327 45.6387C41.5082 45.4243 41.7029 45.2215 41.9096 45.0315C42.3343 44.6244 42.7976 44.2313 43.2644 43.8066C42.6378 43.8949 42.0254 44.0648 41.4428 44.312C41.1362 44.4371 40.8433 44.5934 40.5689 44.7788C40.4126 44.8797 40.2679 44.9974 40.1372 45.1297C39.9566 45.3094 39.8239 45.5315 39.7511 45.7756C39.7291 45.8619 39.715 45.95 39.709 46.0388C39.7056 46.0867 39.7056 46.1348 39.709 46.1827V46.281V46.5092L39.73 46.9619C39.73 47.2638 39.7686 47.5656 39.7932 47.8674C39.8424 48.4676 39.909 49.0643 39.9862 49.6575C40.1422 50.8492 40.3637 52.0314 40.6496 53.1988C40.9309 54.3937 41.321 55.5604 41.8149 56.6842C41.9946 55.4633 42.0615 54.2285 42.0149 52.9953C41.9782 51.7765 41.8775 50.5603 41.7131 49.3521ZM32.0505 45.1193C31.9213 44.9853 31.7763 44.8675 31.6188 44.7683C31.3444 44.583 31.0515 44.4265 30.7449 44.3015C30.1637 44.0538 29.5524 43.8839 28.9268 43.7961C29.3901 44.2208 29.8569 44.6139 30.2816 45.021C30.4864 45.2118 30.6798 45.4146 30.8607 45.6282C30.9358 45.718 31.0028 45.8142 31.0608 45.9159C31.1099 46.0037 31.1169 46.0845 31.0958 46.0634C31.0927 46.0519 31.0927 46.0398 31.0958 46.0283C31.0943 46.0166 31.0943 46.0049 31.0958 45.9932V46.0213L31.0432 46.2424L30.9449 46.6847C30.8782 46.9795 30.8256 47.2778 30.7659 47.5762C30.6536 48.1693 30.5624 48.7695 30.4781 49.3696C30.3124 50.5742 30.2116 51.7869 30.1763 53.0023C30.1308 54.2356 30.199 55.4704 30.3798 56.6912C30.8742 55.5679 31.2631 54.4011 31.5416 53.2059C31.827 52.0381 32.0496 50.856 32.2085 49.6645C32.2822 49.0713 32.3524 48.4746 32.4015 47.8745C32.4226 47.5726 32.4471 47.2707 32.4612 46.9689L32.4857 46.5162V46.288V46.26V46.1897C32.4857 46.1406 32.4857 46.0915 32.4857 46.0458C32.4825 45.957 32.4696 45.8687 32.4471 45.7826C32.3753 45.5306 32.2386 45.3018 32.0505 45.1193ZM28.0739 45.007C27.6034 44.5984 27.0876 44.2451 26.5366 43.954C26.2628 43.8066 25.9891 43.6557 25.7083 43.5223L24.8414 43.1713C24.2534 42.9793 23.653 42.828 23.0443 42.7185C22.4377 42.6175 21.8237 42.567 21.2086 42.5676C19.9825 42.5461 18.7658 42.7854 17.6392 43.2696L18.6921 43.4556C18.6717 43.6421 18.6635 43.8296 18.6675 44.0172C18.6742 44.3038 18.7071 44.5893 18.7658 44.87C18.8848 45.449 19.1046 46.0027 19.4151 46.5057C19.7446 47.0385 20.1808 47.4973 20.6962 47.8534C21.2257 48.2123 21.8229 48.4595 22.4511 48.5799C23.0526 48.6981 23.6697 48.7136 24.2762 48.6256C24.8541 48.5473 25.42 48.3976 25.961 48.1798C26.8352 47.8223 27.6405 47.3152 28.3406 46.6811C28.9865 47.0532 29.6323 47.4568 30.3097 47.8815C29.7998 46.7615 29.0339 45.7769 28.0739 45.007ZM25.5784 46.8777L24.8414 46.9619C24.5992 46.9619 24.3605 47.0075 24.1394 46.9935C23.6864 47.0125 23.2327 46.9771 22.7881 46.8882C21.9252 46.7237 21.1309 46.3058 20.5067 45.6878C19.8749 45.0458 19.3383 44.3165 18.9132 43.5223C19.6538 43.6592 20.3733 43.7996 21.0788 43.9575C21.6298 44.0839 22.1703 44.2137 22.7038 44.3646C23.2373 44.5155 23.7568 44.6911 24.2833 44.856L25.0554 45.1368C25.3117 45.2315 25.5573 45.3579 25.81 45.4597C26.326 45.6648 26.83 45.8992 27.3193 46.1617C27.5193 46.2635 27.7229 46.3758 27.9229 46.4846C27.0981 46.6179 26.3295 46.7724 25.5784 46.8777ZM67.5489 6.08291C67.4015 5.44412 66.0327 0.0565894 61.5296 0.000432158C57.7074 -0.0487054 55.1663 4.10343 53.478 6.85162C53.127 7.40969 52.8147 7.93264 52.5409 8.32925C51.4599 9.88059 47.8553 13.5659 47.2761 14.0818C46.9743 14.3451 46.5742 15.012 45.4475 16.8546C44.6262 18.2129 43.1521 20.6592 42.5344 21.291C41.1936 20.94 39.4563 20.5189 37.1889 19.9924L36.9503 19.7327L36.329 19.0658L35.6867 19.7116L35.4235 19.9783C32.9946 20.5399 31.145 20.9821 29.727 21.3471C29.1549 20.8347 27.6211 18.2621 26.7542 16.8546C25.6416 15.012 25.2274 14.3451 24.9221 14.0818C24.3289 13.5659 20.7103 9.87006 19.6573 8.32925C19.3801 7.93264 19.0571 7.40969 18.7167 6.85162C17.0425 4.12098 14.5049 0.000432158 10.7353 0.000432158H10.6687C6.16205 0.0565894 4.79672 5.44412 4.6493 6.08291C3.37173 9.90511 4.34394 12.9938 5.12312 15.4787C5.37008 16.2052 5.57284 16.946 5.73031 17.697C5.80046 18.4074 5.80988 19.1225 5.75842 19.8345C5.7163 21.0243 5.67415 22.2527 5.93738 23.1021C6.53756 25.0395 9.7982 29.3882 10.3282 30.1217C11.2793 31.845 14.8629 35.7374 16.1089 37.0642C14.6348 40.925 14.4523 43.4977 14.4452 43.61V43.6556C14.3645 51.4123 17.411 53.4832 19.8574 55.1188C20.3422 55.4367 20.8108 55.7787 21.2613 56.1436C21.9918 56.8587 22.5749 57.7101 22.9776 58.6496C23.1949 59.6905 23.3322 60.7466 23.3883 61.8085V61.9313C24.0236 64.8761 25.3994 66.8451 27.4877 67.8314C27.8606 68.0029 28.2483 68.1403 28.646 68.242C29.2216 68.4947 32.8332 70.0145 35.9359 70.0145H36.2413C39.344 70.0145 42.9591 68.4947 43.5312 68.242C43.93 68.1404 44.3188 68.0029 44.6929 67.8314C46.7778 66.8591 48.1571 64.8761 48.7889 61.9313V61.8085C48.845 60.7466 48.9822 59.6905 49.1995 58.6496C49.6023 57.7101 50.1854 56.8587 50.9158 56.1436C51.3475 55.7926 51.8249 55.4627 52.3198 55.1188C54.7766 53.4657 57.8092 51.4123 57.7284 43.6556V43.61C57.7284 43.4977 57.5354 40.9355 56.0648 37.0642C57.3108 35.7339 60.8908 31.845 61.8419 30.1217C62.3824 29.4022 65.6325 25.0535 66.2327 23.1021C66.496 22.2527 66.4539 21.0243 66.4117 19.8345C66.3612 19.1224 66.3717 18.4072 66.4433 17.697C66.5995 16.946 66.8011 16.2052 67.047 15.4787C67.8543 12.9938 68.823 9.90511 67.5489 6.08291ZM36.2693 21.6174C36.7116 22.1228 37.217 22.7371 37.6733 23.3934C39.021 25.2641 39.5721 26.7699 39.1895 27.5174C38.8772 28.1282 37.761 28.4651 36.0552 28.4651C34.3495 28.4651 33.2719 28.1422 32.9841 27.5561C32.6332 26.8155 33.293 25.2396 34.7741 23.3443C35.3076 22.6915 35.8166 22.0912 36.2693 21.6174ZM33.4194 22.2457C31.3731 24.871 30.7238 26.8576 31.4363 28.3177C32.0575 29.5918 33.5773 30.2095 36.0833 30.2095C38.5893 30.2095 40.1231 29.5882 40.7794 28.3072C41.506 26.9032 40.9479 24.8886 39.1263 22.358L39.021 22.2177C44.8895 23.6216 45.7669 24.0427 46.0933 24.5271C46.3325 24.836 46.49 25.2002 46.5513 25.586C46.6126 25.9718 46.5758 26.3669 46.4443 26.7348C45.3914 29.7251 38.842 32.3821 36.0868 33.2701C33.3281 32.3821 26.7858 29.7251 25.7293 26.7348C25.5968 26.3671 25.5595 25.9718 25.6209 25.5858C25.6823 25.1997 25.8403 24.8356 26.0803 24.5271C26.4207 24.0392 27.937 23.5408 33.4194 22.2457ZM11.8129 29.2197L11.7356 29.1004C10.7318 27.7772 8.02926 24.0216 7.58351 22.5826C7.40802 22.0175 7.44662 20.8909 7.48172 19.8941C7.54205 19.06 7.52328 18.2222 7.42559 17.3916C7.25862 16.5594 7.03821 15.7387 6.76574 14.9348C6.02166 12.5656 5.17927 9.8806 6.29539 6.58136L6.3235 6.48659C6.3235 6.43745 7.37644 1.7799 10.6581 1.73778H10.7002C13.5081 1.73778 15.614 5.21247 17.1899 7.75359C17.5409 8.3292 17.8919 8.8768 18.1832 9.31553C19.3835 11.0389 23.097 14.8119 23.7287 15.3665C23.9253 15.5771 24.6518 16.7704 25.2309 17.7426C26.4664 19.7889 27.2631 21.0524 27.8457 21.8351C25.5644 22.5054 25.0379 22.888 24.6272 23.5374C24.0298 24.3739 23.7589 25.4 23.8656 26.4224C23.3848 27.2894 22.4161 28.9179 21.4087 29.8831C20.375 30.8743 19.4044 31.9293 18.5026 33.0419C17.9137 33.768 17.3754 34.5338 16.8916 35.3338C15.2139 33.5333 12.4622 30.4447 11.8129 29.2197ZM36.0658 68.2455C35.2983 68.2496 34.5324 68.1732 33.7809 68.0174C34.5698 67.8021 35.3398 67.5227 36.0833 67.182C36.8265 67.5233 37.5966 67.8027 38.3858 68.0174C37.633 68.1732 36.866 68.2496 36.0974 68.2455H36.0658ZM51.3616 53.6516C50.8246 54.0007 50.3057 54.3767 49.8068 54.7783C48.8233 55.7014 48.0521 56.8271 47.5464 58.0775C47.2656 58.9129 47.0971 61.0398 47.055 61.5874C46.5391 63.9319 45.4932 65.4833 43.9488 66.2063C41.5446 67.3259 38.4454 66.2625 37.1292 65.7044C37.3553 64.8463 37.6572 64.01 38.0313 63.2054C38.2164 63.0155 38.4121 62.8363 38.6174 62.6684C38.7707 62.6524 38.9165 62.594 39.0386 62.4999C39.4786 62.1614 39.8821 61.778 40.2425 61.3558C40.6034 60.944 40.9187 60.4944 41.1831 60.015C41.4525 59.5331 41.6522 59.0155 41.7763 58.4776C41.9052 57.9448 41.9172 57.3905 41.8114 56.8526C41.7928 56.9236 41.7606 56.9904 41.7166 57.0492C41.6823 57.0978 41.6507 57.1481 41.6218 57.2001C41.5622 57.3159 41.4954 57.4247 41.4288 57.53C41.2919 57.7406 41.1585 57.9477 41.0111 58.1407C40.7231 58.5206 40.4137 58.8839 40.0845 59.2288C39.7967 59.5341 39.4914 59.8184 39.1825 60.1027C39.1624 59.6376 39.2266 59.1726 39.372 58.7303C39.5284 58.3057 39.8099 57.9386 40.1793 57.6774C40.6409 57.3652 41.1491 57.1282 41.685 56.9754H41.7061C41.7468 56.9396 41.7822 56.8983 41.8114 56.8526C41.7702 56.8645 41.7278 56.8716 41.685 56.8737C41.0747 56.6841 40.4243 56.6646 39.8038 56.8175C39.4644 56.9133 39.1438 57.0664 38.8561 57.2703C38.5632 57.488 38.3133 57.7582 38.119 58.067C37.7519 58.664 37.5396 59.3432 37.5013 60.043C37.4749 60.3724 37.4749 60.7034 37.5013 61.0328L37.5329 61.282C37.1761 61.5576 36.8533 61.8746 36.5712 62.2262C36.3714 62.5597 36.2056 62.9125 36.0763 63.2791C35.9448 62.9134 35.7791 62.5608 35.5814 62.2262C35.2983 61.8754 34.9756 61.5585 34.6197 61.282C34.6197 61.2012 34.6197 61.117 34.6478 61.0328C34.6741 60.7034 34.6741 60.3724 34.6478 60.043C34.6095 59.3432 34.3972 58.664 34.0301 58.067C33.8344 57.758 33.5834 57.4879 33.2895 57.2703C33.0021 57.0657 32.6815 56.9125 32.3419 56.8175C31.7213 56.6646 31.0708 56.6841 30.4605 56.8737C30.4189 56.8718 30.3776 56.8647 30.3377 56.8526C30.3647 56.8999 30.4004 56.9415 30.443 56.9754C30.9797 57.1291 31.4889 57.3659 31.9522 57.6774C32.3207 57.9395 32.602 58.3064 32.7595 58.7303C32.9037 59.1728 32.9667 59.6378 32.9455 60.1027C32.6367 59.8184 32.3313 59.5341 32.047 59.2288C31.7157 58.8848 31.4051 58.5215 31.1169 58.1407C30.9695 57.9477 30.8396 57.7406 30.6992 57.53C30.6325 57.4247 30.5694 57.3159 30.5097 57.2001C30.4798 57.148 30.447 57.0976 30.4114 57.0492C30.3674 56.9909 30.3362 56.9239 30.3202 56.8526C30.2114 57.3901 30.2222 57.9448 30.3518 58.4776C30.4774 59.015 30.677 59.5324 30.9449 60.015C31.4872 60.9778 32.2163 61.8226 33.0894 62.4999C33.1778 62.5689 33.2793 62.6191 33.3878 62.6473C33.4278 62.6592 33.469 62.6663 33.5106 62.6684C33.7103 62.8302 33.9012 63.0024 34.0827 63.1844C34.4654 63.9942 34.772 64.8378 34.9988 65.7044C33.6826 66.2625 30.5834 67.3259 28.1792 66.2063C26.6348 65.4833 25.5924 63.9319 25.0765 61.5874C25.0344 61.0223 24.8624 58.8953 24.5851 58.0775C24.0769 56.8285 23.306 55.7033 22.3248 54.7783C21.8264 54.3676 21.2894 54.0026 20.7699 53.6516C18.4569 52.0897 16.0668 50.4753 16.1299 43.6908C16.151 43.4381 16.4002 40.8829 17.8638 37.2046C18.4052 36.1182 19.0706 35.0982 19.8468 34.165C20.699 33.1081 21.6182 32.107 22.5986 31.1677C23.3805 30.3649 24.0671 29.4746 24.6448 28.5143C27.2175 32.3154 34.8479 34.7477 35.7885 35.039L36.0482 35.1163L36.3044 35.039C37.2451 34.7477 44.8789 32.3154 47.4481 28.5143C48.0263 29.4751 48.7142 30.3656 49.4979 31.1677C50.4781 32.1083 51.3983 33.1093 52.2531 34.165C53.0269 35.1005 53.6911 36.1216 54.2327 37.2081C55.6963 40.8934 55.9419 43.4451 55.963 43.6908C56.0612 50.4753 53.6711 52.0897 51.3616 53.6516ZM65.4009 14.9522C65.1301 15.7567 64.9097 16.5772 64.7411 17.4091C64.643 18.2397 64.6253 19.0778 64.6884 19.9117C64.72 20.9085 64.7621 22.0351 64.5866 22.6002C64.1409 24.0392 61.4278 27.7947 60.431 29.1179L60.3538 29.2373C59.708 30.4622 56.9563 33.5509 55.268 35.376C54.7867 34.5752 54.2496 33.8093 53.6605 33.0841C52.7604 31.97 51.7897 30.9149 50.7544 29.9252C49.7857 28.9881 48.8486 27.4472 48.2975 26.461C48.4042 25.4386 48.1333 24.4124 47.5359 23.5759C47.0971 22.9266 46.6935 22.523 44.356 21.821C44.9351 21.0348 45.7248 19.7818 46.9322 17.7812C47.5148 16.816 48.2378 15.6156 48.4098 15.4261C49.0767 14.8505 52.7831 11.0774 53.9799 9.35409C54.2853 8.91536 54.6222 8.36784 54.9767 7.79223C56.5351 5.25112 58.6656 1.77643 61.4629 1.77643H61.505C64.7867 1.81854 65.8326 6.47601 65.8431 6.52163L65.8712 6.61992C66.9838 9.8981 66.1415 12.5831 65.3974 14.9522H65.4009ZM50.958 42.5886C50.343 42.5883 49.729 42.6388 49.1223 42.7396C48.5133 42.849 47.9128 43.0014 47.3253 43.1958L46.4619 43.5468C46.1776 43.6767 45.9038 43.8277 45.6336 43.9751C45.0828 44.2683 44.566 44.6214 44.0928 45.028C43.1383 45.8105 42.3789 46.8042 41.8745 47.9307C42.5519 47.5025 43.1977 47.1023 43.8435 46.7302C44.5444 47.3651 45.3509 47.8723 46.2267 48.2289C46.7665 48.4467 47.3312 48.5964 47.9079 48.6747C48.5145 48.7628 49.1316 48.7474 49.733 48.6291C50.361 48.5076 50.9579 48.2604 51.4879 47.9026C52.0017 47.5456 52.4366 47.0868 52.7655 46.5548C53.0786 46.0531 53.2986 45.499 53.4148 44.9192C53.4735 44.6385 53.5064 44.353 53.5131 44.0663C53.5184 43.8801 53.5114 43.6936 53.4921 43.5082L54.545 43.3187C53.4138 42.8225 52.1896 42.5736 50.9544 42.5886H50.958ZM51.6775 45.6878C51.0519 46.3059 50.2565 46.7237 49.3926 46.8882C48.948 46.9771 48.4943 47.0125 48.0413 46.9935C47.8061 46.9935 47.5675 46.9655 47.3393 46.9619L46.6023 46.8777C45.8512 46.7724 45.079 46.6144 44.2682 46.474C44.4718 46.3617 44.6719 46.2529 44.8789 46.1476C45.3674 45.8859 45.8701 45.6516 46.3847 45.4457C46.6409 45.3474 46.883 45.221 47.1393 45.1262L47.9114 44.8455C48.4344 44.6841 48.9644 44.4945 49.4909 44.3576C50.0173 44.2207 50.5684 44.0768 51.1159 43.9505C51.8179 43.7925 52.5409 43.6522 53.2815 43.5153C52.8543 44.3139 52.3127 45.0458 51.674 45.6878H51.6775ZM41.7166 49.3521C41.6288 48.7519 41.5376 48.1518 41.4253 47.5586C41.3691 47.2603 41.313 46.9619 41.2463 46.6671L41.148 46.2248L41.0953 46.0037C41.0967 46.0153 41.0967 46.0272 41.0953 46.0388C41.0977 46.0444 41.0989 46.0504 41.0989 46.0564C41.0989 46.0624 41.0977 46.0684 41.0953 46.074C41.0743 46.095 41.0953 46.0142 41.1304 45.9265C41.1884 45.8248 41.2554 45.7285 41.3305 45.6387C41.5117 45.4243 41.7063 45.2215 41.9131 45.0315C42.3378 44.6244 42.8011 44.2313 43.2679 43.8066C42.6413 43.8949 42.0289 44.0648 41.4463 44.312C41.1397 44.4371 40.8468 44.5934 40.5724 44.7788C40.4161 44.8797 40.2714 44.9974 40.1407 45.1297C39.9601 45.3094 39.8274 45.5315 39.7546 45.7756C39.7326 45.8619 39.7186 45.95 39.7125 46.0388C39.7091 46.0867 39.7091 46.1348 39.7125 46.1827V46.281V46.5092L39.7335 46.9619C39.7335 47.2638 39.7722 47.5656 39.7967 47.8674C39.8459 48.4676 39.9125 49.0643 39.9897 49.6575C40.1457 50.8492 40.3672 52.0314 40.6531 53.1988C40.9344 54.3937 41.3245 55.5604 41.8184 56.6842C41.9981 55.4633 42.0651 54.2285 42.0184 52.9953C41.9806 51.7764 41.8786 50.5603 41.7131 49.3521H41.7166ZM32.054 45.1193C31.9248 44.9853 31.7798 44.8675 31.6223 44.7683C31.3479 44.583 31.055 44.4265 30.7484 44.3015C30.1672 44.0538 29.5559 43.8839 28.9303 43.7961C29.3936 44.2208 29.8604 44.6139 30.2851 45.021C30.4899 45.2118 30.6833 45.4146 30.8642 45.6282C30.9393 45.718 31.0063 45.8142 31.0643 45.9159C31.1134 46.0037 31.1204 46.0845 31.0994 46.0634C31.0962 46.0519 31.0962 46.0398 31.0994 46.0283C31.0978 46.0166 31.0978 46.0049 31.0994 45.9932V46.0213L31.0467 46.2424L30.9484 46.6847C30.8817 46.9795 30.8291 47.2778 30.7694 47.5762C30.6571 48.1693 30.5659 48.7695 30.4816 49.3696C30.3159 50.5742 30.2151 51.7869 30.1798 53.0023C30.1343 54.2356 30.2025 55.4704 30.3833 56.6912C30.8777 55.5679 31.2666 54.4011 31.5451 53.2059C31.8305 52.0381 32.0531 50.856 32.212 49.6645C32.2857 49.0713 32.3559 48.4746 32.405 47.8745C32.4261 47.5726 32.4506 47.2707 32.4647 46.9689L32.4892 46.5162V46.288V46.26V46.1897C32.4892 46.1406 32.4892 46.0915 32.4892 46.0458C32.486 45.957 32.4731 45.8687 32.4506 45.7826C32.3779 45.5302 32.2398 45.3014 32.0505 45.1193H32.054ZM28.0774 45.007C27.6069 44.5984 27.0911 44.2451 26.5401 43.954C26.2663 43.8066 25.9926 43.6557 25.7118 43.5223L24.8448 43.1713C24.2569 42.9793 23.6565 42.828 23.0478 42.7185C22.4412 42.6175 21.8272 42.567 21.2122 42.5676C19.986 42.5461 18.7694 42.7854 17.6427 43.2696L18.6956 43.4556C18.6752 43.6421 18.667 43.8296 18.671 44.0172C18.6778 44.3038 18.7107 44.5893 18.7693 44.87C18.8883 45.449 19.1081 46.0027 19.4186 46.5057C19.7481 47.0385 20.1843 47.4973 20.6997 47.8534C21.2293 48.2123 21.8264 48.4595 22.4547 48.5799C23.0561 48.6981 23.6732 48.7136 24.2797 48.6256C24.8576 48.5473 25.4235 48.3976 25.9645 48.1798C26.8388 47.8223 27.644 47.3152 28.3442 46.6811C28.99 47.0532 29.6358 47.4568 30.3132 47.8815C29.8023 46.7611 29.0352 45.7765 28.0739 45.007H28.0774ZM25.5819 46.8777L24.8448 46.9619C24.6026 46.9619 24.364 47.0075 24.1429 46.9935C23.6898 47.0125 23.2362 46.9771 22.7916 46.8882C21.9287 46.7237 21.1344 46.3058 20.5102 45.6878C19.8784 45.0458 19.3418 44.3165 18.9168 43.5223C19.6573 43.6592 20.3768 43.7996 21.0823 43.9575C21.6333 44.0839 22.1739 44.2137 22.7073 44.3646C23.2408 44.5155 23.7603 44.6911 24.2868 44.856L25.059 45.1368C25.3152 45.2315 25.5608 45.3579 25.8135 45.4597C26.3296 45.6648 26.8335 45.8992 27.3228 46.1617C27.5228 46.2635 27.7264 46.3758 27.9265 46.4846C27.0981 46.6179 26.3295 46.7724 25.5784 46.8777H25.5819ZM28.0774 45.007C27.6069 44.5984 27.0911 44.2451 26.5401 43.954C26.2663 43.8066 25.9926 43.6557 25.7118 43.5223L24.8448 43.1713C24.2569 42.9793 23.6565 42.828 23.0478 42.7185C22.4412 42.6175 21.8272 42.567 21.2122 42.5676C19.986 42.5461 18.7694 42.7854 17.6427 43.2696L18.6956 43.4556C18.6752 43.6421 18.667 43.8296 18.671 44.0172C18.6778 44.3038 18.7107 44.5893 18.7693 44.87C18.8883 45.449 19.1081 46.0027 19.4186 46.5057C19.7481 47.0385 20.1843 47.4973 20.6997 47.8534C21.2293 48.2123 21.8264 48.4595 22.4547 48.5799C23.0561 48.6981 23.6732 48.7136 24.2797 48.6256C24.8576 48.5473 25.4235 48.3976 25.9645 48.1798C26.8388 47.8223 27.644 47.3152 28.3442 46.6811C28.99 47.0532 29.6358 47.4568 30.3132 47.8815C29.8023 46.7611 29.0352 45.7765 28.0739 45.007H28.0774ZM25.5819 46.8777L24.8448 46.9619C24.6026 46.9619 24.364 47.0075 24.1429 46.9935C23.6898 47.0125 23.2362 46.9771 22.7916 46.8882C21.9287 46.7237 21.1344 46.3058 20.5102 45.6878C19.8784 45.0458 19.3418 44.3165 18.9168 43.5223C19.6573 43.6592 20.3768 43.7996 21.0823 43.9575C21.6333 44.0839 22.1739 44.2137 22.7073 44.3646C23.2408 44.5155 23.7603 44.6911 24.2868 44.856L25.059 45.1368C25.3152 45.2315 25.5608 45.3579 25.8135 45.4597C26.3296 45.6648 26.8335 45.8992 27.3228 46.1617C27.5228 46.2635 27.7264 46.3758 27.9265 46.4846C27.0981 46.6179 26.3295 46.7724 25.5784 46.8777H25.5819ZM32.4436 45.765C32.3711 45.52 32.2369 45.2977 32.054 45.1193C31.9248 44.9853 31.7798 44.8675 31.6223 44.7683C31.3479 44.583 31.055 44.4265 30.7484 44.3015C30.1672 44.0538 29.5559 43.8839 28.9303 43.7961C29.3936 44.2208 29.8604 44.6139 30.2851 45.021C30.4899 45.2118 30.6833 45.4146 30.8642 45.6282C30.9393 45.718 31.0063 45.8142 31.0643 45.9159C31.1134 46.0037 31.1204 46.0845 31.0994 46.0634C31.0962 46.0519 31.0962 46.0398 31.0994 46.0283C31.0978 46.0166 31.0978 46.0049 31.0994 45.9932V46.0213L31.0467 46.2424L30.9484 46.6847C30.8817 46.9795 30.8291 47.2778 30.7694 47.5762C30.6571 48.1693 30.5659 48.7695 30.4816 49.3696C30.3159 50.5742 30.2151 51.7869 30.1798 53.0023C30.1343 54.2356 30.2025 55.4704 30.3833 56.6912C30.8777 55.5679 31.2666 54.4011 31.5451 53.2059C31.8305 52.0381 32.0531 50.856 32.212 49.6645C32.2857 49.0713 32.3559 48.4746 32.405 47.8745C32.4261 47.5726 32.4506 47.2707 32.4647 46.9689L32.4892 46.5162V46.288V46.26V46.1897C32.4892 46.1406 32.4892 46.0915 32.4892 46.0458C32.4839 45.9506 32.4674 45.8564 32.4401 45.765H32.4436ZM41.7166 49.3521C41.6288 48.7519 41.5376 48.1518 41.4253 47.5586C41.3691 47.2603 41.313 46.9619 41.2463 46.6671L41.148 46.2248L41.0953 46.0037C41.0967 46.0153 41.0967 46.0272 41.0953 46.0388C41.0977 46.0444 41.0989 46.0504 41.0989 46.0564C41.0989 46.0624 41.0977 46.0684 41.0953 46.074C41.0743 46.095 41.0953 46.0142 41.1304 45.9265C41.1884 45.8248 41.2554 45.7285 41.3305 45.6387C41.5117 45.4243 41.7063 45.2215 41.9131 45.0315C42.3378 44.6244 42.8011 44.2313 43.2679 43.8066C42.6413 43.8949 42.0289 44.0648 41.4463 44.312C41.1397 44.4371 40.8468 44.5934 40.5724 44.7788C40.4161 44.8797 40.2714 44.9974 40.1407 45.1297C39.9601 45.3094 39.8274 45.5315 39.7546 45.7756C39.7326 45.8619 39.7186 45.95 39.7125 46.0388C39.7091 46.0867 39.7091 46.1348 39.7125 46.1827V46.281V46.5092L39.7335 46.9619C39.7335 47.2638 39.7722 47.5656 39.7967 47.8674C39.8459 48.4676 39.9125 49.0643 39.9897 49.6575C40.1457 50.8492 40.3672 52.0314 40.6531 53.1988C40.9344 54.3937 41.3245 55.5604 41.8184 56.6842C41.9981 55.4633 42.0651 54.2285 42.0184 52.9953C41.9806 51.7764 41.8786 50.5603 41.7131 49.3521H41.7166ZM54.531 43.2976C53.403 42.8135 52.1852 42.5743 50.958 42.5957C50.343 42.5953 49.729 42.6459 49.1223 42.7466C48.5133 42.8561 47.9128 43.0085 47.3253 43.2028L46.4619 43.5538C46.1776 43.6837 45.9038 43.8347 45.6336 43.9821C45.0828 44.2753 44.566 44.6284 44.0928 45.0351C43.1383 45.8176 42.3789 46.8112 41.8745 47.9376C42.5519 47.5094 43.1977 47.1093 43.8435 46.7373C44.5444 47.3721 45.3509 47.8793 46.2267 48.236C46.7665 48.4537 47.3312 48.6034 47.9079 48.6817C48.5145 48.7698 49.1316 48.7544 49.733 48.6361C50.361 48.5145 50.9579 48.2675 51.4879 47.9096C52.0017 47.5527 52.4366 47.0939 52.7655 46.5618C53.0786 46.0601 53.2986 45.5061 53.4148 44.9262C53.4735 44.6455 53.5064 44.36 53.5131 44.0733C53.5184 43.887 53.5114 43.7006 53.4921 43.5153L54.531 43.2976ZM51.6775 45.6878C51.0519 46.3059 50.2565 46.7237 49.3926 46.8882C48.948 46.9771 48.4943 47.0125 48.0413 46.9935C47.8061 46.9935 47.5675 46.9655 47.3393 46.9619L46.6023 46.8777C45.8512 46.7724 45.079 46.6144 44.2682 46.474C44.4718 46.3617 44.6719 46.2529 44.8789 46.1476C45.3674 45.8859 45.8701 45.6516 46.3847 45.4457C46.6409 45.3474 46.883 45.221 47.1393 45.1262L47.9114 44.8455C48.4344 44.6841 48.9644 44.4945 49.4909 44.3576C50.0173 44.2207 50.5684 44.0768 51.1159 43.9505C51.8179 43.7925 52.5409 43.6522 53.2815 43.5153C52.8543 44.3139 52.3127 45.0458 51.674 45.6878H51.6775ZM54.531 43.2976C53.403 42.8135 52.1852 42.5743 50.958 42.5957C50.343 42.5953 49.729 42.6459 49.1223 42.7466C48.5133 42.8561 47.9128 43.0085 47.3253 43.2028L46.4619 43.5538C46.1776 43.6837 45.9038 43.8347 45.6336 43.9821C45.0828 44.2753 44.566 44.6284 44.0928 45.0351C43.1383 45.8176 42.3789 46.8112 41.8745 47.9376C42.5519 47.5094 43.1977 47.1093 43.8435 46.7373C44.5444 47.3721 45.3509 47.8793 46.2267 48.236C46.7665 48.4537 47.3312 48.6034 47.9079 48.6817C48.5145 48.7698 49.1316 48.7544 49.733 48.6361C50.361 48.5145 50.9579 48.2675 51.4879 47.9096C52.0017 47.5527 52.4366 47.0939 52.7655 46.5618C53.0786 46.0601 53.2986 45.5061 53.4148 44.9262C53.4735 44.6455 53.5064 44.36 53.5131 44.0733C53.5184 43.887 53.5114 43.7006 53.4921 43.5153L54.531 43.2976ZM51.6775 45.6878C51.0519 46.3059 50.2565 46.7237 49.3926 46.8882C48.948 46.9771 48.4943 47.0125 48.0413 46.9935C47.8061 46.9935 47.5675 46.9655 47.3393 46.9619L46.6023 46.8777C45.8512 46.7724 45.079 46.6144 44.2682 46.474C44.4718 46.3617 44.6719 46.2529 44.8789 46.1476C45.3674 45.8859 45.8701 45.6516 46.3847 45.4457C46.6409 45.3474 46.883 45.221 47.1393 45.1262L47.9114 44.8455C48.4344 44.6841 48.9644 44.4945 49.4909 44.3576C50.0173 44.2207 50.5684 44.0768 51.1159 43.9505C51.8179 43.7925 52.5409 43.6522 53.2815 43.5153C52.8543 44.3139 52.3127 45.0458 51.674 45.6878H51.6775ZM41.7166 49.3521C41.6288 48.7519 41.5376 48.1518 41.4253 47.5586C41.3691 47.2603 41.313 46.9619 41.2463 46.6671L41.148 46.2248L41.0953 46.0037C41.0967 46.0153 41.0967 46.0272 41.0953 46.0388C41.0977 46.0444 41.0989 46.0504 41.0989 46.0564C41.0989 46.0624 41.0977 46.0684 41.0953 46.074C41.0743 46.095 41.0953 46.0142 41.1304 45.9265C41.1884 45.8248 41.2554 45.7285 41.3305 45.6387C41.5117 45.4243 41.7063 45.2215 41.9131 45.0315C42.3378 44.6244 42.8011 44.2313 43.2679 43.8066C42.6413 43.8949 42.0289 44.0648 41.4463 44.312C41.1397 44.4371 40.8468 44.5934 40.5724 44.7788C40.4161 44.8797 40.2714 44.9974 40.1407 45.1297C39.9601 45.3094 39.8274 45.5315 39.7546 45.7756C39.7326 45.8619 39.7186 45.95 39.7125 46.0388C39.7091 46.0867 39.7091 46.1348 39.7125 46.1827V46.281V46.5092L39.7335 46.9619C39.7335 47.2638 39.7722 47.5656 39.7967 47.8674C39.8459 48.4676 39.9125 49.0643 39.9897 49.6575C40.1457 50.8492 40.3672 52.0314 40.6531 53.1988C40.9344 54.3937 41.3245 55.5604 41.8184 56.6842C41.9981 55.4633 42.0651 54.2285 42.0184 52.9953C41.9806 51.7764 41.8786 50.5603 41.7131 49.3521H41.7166ZM32.4436 45.765C32.3711 45.52 32.2369 45.2977 32.054 45.1193C31.9248 44.9853 31.7798 44.8675 31.6223 44.7683C31.3479 44.583 31.055 44.4265 30.7484 44.3015C30.1672 44.0538 29.5559 43.8839 28.9303 43.7961C29.3936 44.2208 29.8604 44.6139 30.2851 45.021C30.4899 45.2118 30.6833 45.4146 30.8642 45.6282C30.9393 45.718 31.0063 45.8142 31.0643 45.9159C31.1134 46.0037 31.1204 46.0845 31.0994 46.0634C31.0962 46.0519 31.0962 46.0398 31.0994 46.0283C31.0978 46.0166 31.0978 46.0049 31.0994 45.9932V46.0213L31.0467 46.2424L30.9484 46.6847C30.8817 46.9795 30.8291 47.2778 30.7694 47.5762C30.6571 48.1693 30.5659 48.7695 30.4816 49.3696C30.3159 50.5742 30.2151 51.7869 30.1798 53.0023C30.1343 54.2356 30.2025 55.4704 30.3833 56.6912C30.8777 55.5679 31.2666 54.4011 31.5451 53.2059C31.8305 52.0381 32.0531 50.856 32.212 49.6645C32.2857 49.0713 32.3559 48.4746 32.405 47.8745C32.4261 47.5726 32.4506 47.2707 32.4647 46.9689L32.4892 46.5162V46.288V46.26V46.1897C32.4892 46.1406 32.4892 46.0915 32.4892 46.0458C32.4839 45.9506 32.4674 45.8564 32.4401 45.765H32.4436ZM28.0774 45.007C27.6069 44.5984 27.0911 44.2451 26.5401 43.954C26.2663 43.8066 25.9926 43.6557 25.7118 43.5223L24.8448 43.1713C24.2569 42.9793 23.6565 42.828 23.0478 42.7185C22.4412 42.6175 21.8272 42.567 21.2122 42.5676C19.986 42.5461 18.7694 42.7854 17.6427 43.2696L18.6956 43.4556C18.6752 43.6421 18.667 43.8296 18.671 44.0172C18.6778 44.3038 18.7107 44.5893 18.7693 44.87C18.8883 45.449 19.1081 46.0027 19.4186 46.5057C19.7481 47.0385 20.1843 47.4973 20.6997 47.8534C21.2293 48.2123 21.8264 48.4595 22.4547 48.5799C23.0561 48.6981 23.6732 48.7136 24.2797 48.6256C24.8576 48.5473 25.4235 48.3976 25.9645 48.1798C26.8388 47.8223 27.644 47.3152 28.3442 46.6811C28.99 47.0532 29.6358 47.4568 30.3132 47.8815C29.8023 46.7611 29.0352 45.7765 28.0739 45.007H28.0774ZM25.5819 46.8777L24.8448 46.9619C24.6026 46.9619 24.364 47.0075 24.1429 46.9935C23.6898 47.0125 23.2362 46.9771 22.7916 46.8882C21.9287 46.7237 21.1344 46.3058 20.5102 45.6878C19.8784 45.0458 19.3418 44.3165 18.9168 43.5223C19.6573 43.6592 20.3768 43.7996 21.0823 43.9575C21.6333 44.0839 22.1739 44.2137 22.7073 44.3646C23.2408 44.5155 23.7603 44.6911 24.2868 44.856L25.059 45.1368C25.3152 45.2315 25.5608 45.3579 25.8135 45.4597C26.3296 45.6648 26.8335 45.8992 27.3228 46.1617C27.5228 46.2635 27.7264 46.3758 27.9265 46.4846C27.0981 46.6179 26.3295 46.7724 25.5784 46.8777H25.5819ZM28.0774 45.007C27.6069 44.5984 27.0911 44.2451 26.5401 43.954C26.2663 43.8066 25.9926 43.6557 25.7118 43.5223L24.8448 43.1713C24.2569 42.9793 23.6565 42.828 23.0478 42.7185C22.4412 42.6175 21.8272 42.567 21.2122 42.5676C19.986 42.5461 18.7694 42.7854 17.6427 43.2696L18.6956 43.4556C18.6752 43.6421 18.667 43.8296 18.671 44.0172C18.6778 44.3038 18.7107 44.5893 18.7693 44.87C18.8883 45.449 19.1081 46.0027 19.4186 46.5057C19.7481 47.0385 20.1843 47.4973 20.6997 47.8534C21.2293 48.2123 21.8264 48.4595 22.4547 48.5799C23.0561 48.6981 23.6732 48.7136 24.2797 48.6256C24.8576 48.5473 25.4235 48.3976 25.9645 48.1798C26.8388 47.8223 27.644 47.3152 28.3442 46.6811C28.99 47.0532 29.6358 47.4568 30.3132 47.8815C29.8023 46.7611 29.0352 45.7765 28.0739 45.007H28.0774ZM25.5819 46.8777L24.8448 46.9619C24.6026 46.9619 24.364 47.0075 24.1429 46.9935C23.6898 47.0125 23.2362 46.9771 22.7916 46.8882C21.9287 46.7237 21.1344 46.3058 20.5102 45.6878C19.8784 45.0458 19.3418 44.3165 18.9168 43.5223C19.6573 43.6592 20.3768 43.7996 21.0823 43.9575C21.6333 44.0839 22.1739 44.2137 22.7073 44.3646C23.2408 44.5155 23.7603 44.6911 24.2868 44.856L25.059 45.1368C25.3152 45.2315 25.5608 45.3579 25.8135 45.4597C26.3296 45.6648 26.8335 45.8992 27.3228 46.1617C27.5228 46.2635 27.7264 46.3758 27.9265 46.4846C27.0981 46.6179 26.3295 46.7724 25.5784 46.8777H25.5819ZM32.4436 45.765C32.3711 45.52 32.2369 45.2977 32.054 45.1193C31.9248 44.9853 31.7798 44.8675 31.6223 44.7683C31.3479 44.583 31.055 44.4265 30.7484 44.3015C30.1672 44.0538 29.5559 43.8839 28.9303 43.7961C29.3936 44.2208 29.8604 44.6139 30.2851 45.021C30.4899 45.2118 30.6833 45.4146 30.8642 45.6282C30.9393 45.718 31.0063 45.8142 31.0643 45.9159C31.1134 46.0037 31.1204 46.0845 31.0994 46.0634C31.0962 46.0519 31.0962 46.0398 31.0994 46.0283C31.0978 46.0166 31.0978 46.0049 31.0994 45.9932V46.0213L31.0467 46.2424L30.9484 46.6847C30.8817 46.9795 30.8291 47.2778 30.7694 47.5762C30.6571 48.1693 30.5659 48.7695 30.4816 49.3696C30.3159 50.5742 30.2151 51.7869 30.1798 53.0023C30.1343 54.2356 30.2025 55.4704 30.3833 56.6912C30.8777 55.5679 31.2666 54.4011 31.5451 53.2059C31.8305 52.0381 32.0531 50.856 32.212 49.6645C32.2857 49.0713 32.3559 48.4746 32.405 47.8745C32.4261 47.5726 32.4506 47.2707 32.4647 46.9689L32.4892 46.5162V46.288V46.26V46.1897C32.4892 46.1406 32.4892 46.0915 32.4892 46.0458C32.4839 45.9506 32.4674 45.8564 32.4401 45.765H32.4436ZM41.7166 49.3521C41.6288 48.7519 41.5376 48.1518 41.4253 47.5586C41.3691 47.2603 41.313 46.9619 41.2463 46.6671L41.148 46.2248L41.0953 46.0037C41.0967 46.0153 41.0967 46.0272 41.0953 46.0388C41.0977 46.0444 41.0989 46.0504 41.0989 46.0564C41.0989 46.0624 41.0977 46.0684 41.0953 46.074C41.0743 46.095 41.0953 46.0142 41.1304 45.9265C41.1884 45.8248 41.2554 45.7285 41.3305 45.6387C41.5117 45.4243 41.7063 45.2215 41.9131 45.0315C42.3378 44.6244 42.8011 44.2313 43.2679 43.8066C42.6413 43.8949 42.0289 44.0648 41.4463 44.312C41.1397 44.4371 40.8468 44.5934 40.5724 44.7788C40.4161 44.8797 40.2714 44.9974 40.1407 45.1297C39.9601 45.3094 39.8274 45.5315 39.7546 45.7756C39.7326 45.8619 39.7186 45.95 39.7125 46.0388C39.7091 46.0867 39.7091 46.1348 39.7125 46.1827V46.281V46.5092L39.7335 46.9619C39.7335 47.2638 39.7722 47.5656 39.7967 47.8674C39.8459 48.4676 39.9125 49.0643 39.9897 49.6575C40.1457 50.8492 40.3672 52.0314 40.6531 53.1988C40.9344 54.3937 41.3245 55.5604 41.8184 56.6842C41.9981 55.4633 42.0651 54.2285 42.0184 52.9953C41.9806 51.7764 41.8786 50.5603 41.7131 49.3521H41.7166ZM54.531 43.2976C53.403 42.8135 52.1852 42.5743 50.958 42.5957C50.343 42.5953 49.729 42.6459 49.1223 42.7466C48.5133 42.8561 47.9128 43.0085 47.3253 43.2028L46.4619 43.5538C46.1776 43.6837 45.9038 43.8347 45.6336 43.9821C45.0828 44.2753 44.566 44.6284 44.0928 45.0351C43.1383 45.8176 42.3789 46.8112 41.8745 47.9376C42.5519 47.5094 43.1977 47.1093 43.8435 46.7373C44.5444 47.3721 45.3509 47.8793 46.2267 48.236C46.7665 48.4537 47.3312 48.6034 47.9079 48.6817C48.5145 48.7698 49.1316 48.7544 49.733 48.6361C50.361 48.5145 50.9579 48.2675 51.4879 47.9096C52.0017 47.5527 52.4366 47.0939 52.7655 46.5618C53.0786 46.0601 53.2986 45.5061 53.4148 44.9262C53.4735 44.6455 53.5064 44.36 53.5131 44.0733C53.5184 43.887 53.5114 43.7006 53.4921 43.5153L54.531 43.2976ZM51.6775 45.6878C51.0519 46.3059 50.2565 46.7237 49.3926 46.8882C48.948 46.9771 48.4943 47.0125 48.0413 46.9935C47.8061 46.9935 47.5675 46.9655 47.3393 46.9619L46.6023 46.8777C45.8512 46.7724 45.079 46.6144 44.2682 46.474C44.4718 46.3617 44.6719 46.2529 44.8789 46.1476C45.3674 45.8859 45.8701 45.6516 46.3847 45.4457C46.6409 45.3474 46.883 45.221 47.1393 45.1262L47.9114 44.8455C48.4344 44.6841 48.9644 44.4945 49.4909 44.3576C50.0173 44.2207 50.5684 44.0768 51.1159 43.9505C51.8179 43.7925 52.5409 43.6522 53.2815 43.5153C52.8543 44.3139 52.3127 45.0458 51.674 45.6878H51.6775ZM54.531 43.2976C53.403 42.8135 52.1852 42.5743 50.958 42.5957C50.343 42.5953 49.729 42.6459 49.1223 42.7466C48.5133 42.8561 47.9128 43.0085 47.3253 43.2028L46.4619 43.5538C46.1776 43.6837 45.9038 43.8347 45.6336 43.9821C45.0828 44.2753 44.566 44.6284 44.0928 45.0351C43.1383 45.8176 42.3789 46.8112 41.8745 47.9376C42.5519 47.5094 43.1977 47.1093 43.8435 46.7373C44.5444 47.3721 45.3509 47.8793 46.2267 48.236C46.7665 48.4537 47.3312 48.6034 47.9079 48.6817C48.5145 48.7698 49.1316 48.7544 49.733 48.6361C50.361 48.5145 50.9579 48.2675 51.4879 47.9096C52.0017 47.5527 52.4366 47.0939 52.7655 46.5618C53.0786 46.0601 53.2986 45.5061 53.4148 44.9262C53.4735 44.6455 53.5064 44.36 53.5131 44.0733C53.5184 43.887 53.5114 43.7006 53.4921 43.5153L54.531 43.2976ZM51.6775 45.6878C51.0519 46.3059 50.2565 46.7237 49.3926 46.8882C48.948 46.9771 48.4943 47.0125 48.0413 46.9935C47.8061 46.9935 47.5675 46.9655 47.3393 46.9619L46.6023 46.8777C45.8512 46.7724 45.079 46.6144 44.2682 46.474C44.4718 46.3617 44.6719 46.2529 44.8789 46.1476C45.3674 45.8859 45.8701 45.6516 46.3847 45.4457C46.6409 45.3474 46.883 45.221 47.1393 45.1262L47.9114 44.8455C48.4344 44.6841 48.9644 44.4945 49.4909 44.3576C50.0173 44.2207 50.5684 44.0768 51.1159 43.9505C51.8179 43.7925 52.5409 43.6522 53.2815 43.5153C52.8543 44.3139 52.3127 45.0458 51.674 45.6878H51.6775ZM41.7166 49.3521C41.6288 48.7519 41.5376 48.1518 41.4253 47.5586C41.3691 47.2603 41.313 46.9619 41.2463 46.6671L41.148 46.2248L41.0953 46.0037C41.0967 46.0153 41.0967 46.0272 41.0953 46.0388C41.0977 46.0444 41.0989 46.0504 41.0989 46.0564C41.0989 46.0624 41.0977 46.0684 41.0953 46.074C41.0743 46.095 41.0953 46.0142 41.1304 45.9265C41.1884 45.8248 41.2554 45.7285 41.3305 45.6387C41.5117 45.4243 41.7063 45.2215 41.9131 45.0315C42.3378 44.6244 42.8011 44.2313 43.2679 43.8066C42.6413 43.8949 42.0289 44.0648 41.4463 44.312C41.1397 44.4371 40.8468 44.5934 40.5724 44.7788C40.4161 44.8797 40.2714 44.9974 40.1407 45.1297C39.9601 45.3094 39.8274 45.5315 39.7546 45.7756C39.7326 45.8619 39.7186 45.95 39.7125 46.0388C39.7091 46.0867 39.7091 46.1348 39.7125 46.1827V46.281V46.5092L39.7335 46.9619C39.7335 47.2638 39.7722 47.5656 39.7967 47.8674C39.8459 48.4676 39.9125 49.0643 39.9897 49.6575C40.1457 50.8492 40.3672 52.0314 40.6531 53.1988C40.9344 54.3937 41.3245 55.5604 41.8184 56.6842C41.9981 55.4633 42.0651 54.2285 42.0184 52.9953C41.9806 51.7764 41.8786 50.5603 41.7131 49.3521H41.7166ZM32.4436 45.765C32.3711 45.52 32.2369 45.2977 32.054 45.1193C31.9248 44.9853 31.7798 44.8675 31.6223 44.7683C31.3479 44.583 31.055 44.4265 30.7484 44.3015C30.1672 44.0538 29.5559 43.8839 28.9303 43.7961C29.3936 44.2208 29.8604 44.6139 30.2851 45.021C30.4899 45.2118 30.6833 45.4146 30.8642 45.6282C30.9393 45.718 31.0063 45.8142 31.0643 45.9159C31.1134 46.0037 31.1204 46.0845 31.0994 46.0634C31.0962 46.0519 31.0962 46.0398 31.0994 46.0283C31.0978 46.0166 31.0978 46.0049 31.0994 45.9932V46.0213L31.0467 46.2424L30.9484 46.6847C30.8817 46.9795 30.8291 47.2778 30.7694 47.5762C30.6571 48.1693 30.5659 48.7695 30.4816 49.3696C30.3159 50.5742 30.2151 51.7869 30.1798 53.0023C30.1343 54.2356 30.2025 55.4704 30.3833 56.6912C30.8777 55.5679 31.2666 54.4011 31.5451 53.2059C31.8305 52.0381 32.0531 50.856 32.212 49.6645C32.2857 49.0713 32.3559 48.4746 32.405 47.8745C32.4261 47.5726 32.4506 47.2707 32.4647 46.9689L32.4892 46.5162V46.288V46.26V46.1897C32.4892 46.1406 32.4892 46.0915 32.4892 46.0458C32.4839 45.9506 32.4674 45.8564 32.4401 45.765H32.4436ZM28.0774 45.007C27.6069 44.5984 27.0911 44.2451 26.5401 43.954C26.2663 43.8066 25.9926 43.6557 25.7118 43.5223L24.8448 43.1713C24.2569 42.9793 23.6565 42.828 23.0478 42.7185C22.4412 42.6175 21.8272 42.567 21.2122 42.5676C19.986 42.5461 18.7694 42.7854 17.6427 43.2696L18.6956 43.4556C18.6752 43.6421 18.667 43.8296 18.671 44.0172C18.6778 44.3038 18.7107 44.5893 18.7693 44.87C18.8883 45.449 19.1081 46.0027 19.4186 46.5057C19.7481 47.0385 20.1843 47.4973 20.6997 47.8534C21.2293 48.2123 21.8264 48.4595 22.4547 48.5799C23.0561 48.6981 23.6732 48.7136 24.2797 48.6256C24.8576 48.5473 25.4235 48.3976 25.9645 48.1798C26.8388 47.8223 27.644 47.3152 28.3442 46.6811C28.99 47.0532 29.6358 47.4568 30.3132 47.8815C29.8023 46.7611 29.0352 45.7765 28.0739 45.007H28.0774ZM25.5819 46.8777L24.8448 46.9619C24.6026 46.9619 24.364 47.0075 24.1429 46.9935C23.6898 47.0125 23.2362 46.9771 22.7916 46.8882C21.9287 46.7237 21.1344 46.3058 20.5102 45.6878C19.8784 45.0458 19.3418 44.3165 18.9168 43.5223C19.6573 43.6592 20.3768 43.7996 21.0823 43.9575C21.6333 44.0839 22.1739 44.2137 22.7073 44.3646C23.2408 44.5155 23.7603 44.6911 24.2868 44.856L25.059 45.1368C25.3152 45.2315 25.5608 45.3579 25.8135 45.4597C26.3296 45.6648 26.8335 45.8992 27.3228 46.1617C27.5228 46.2635 27.7264 46.3758 27.9265 46.4846C27.0981 46.6179 26.3295 46.7724 25.5784 46.8777H25.5819ZM29.6182 21.3402V21.3752L29.6814 21.3577L29.6182 21.3402ZM28.0774 45.007C27.6069 44.5984 27.0911 44.2451 26.5401 43.954C26.2663 43.8066 25.9926 43.6557 25.7118 43.5223L24.8448 43.1713C24.2569 42.9793 23.6565 42.828 23.0478 42.7185C22.4412 42.6175 21.8272 42.567 21.2122 42.5676C19.986 42.5461 18.7694 42.7854 17.6427 43.2696L18.6956 43.4556C18.6752 43.6421 18.667 43.8296 18.671 44.0172C18.6778 44.3038 18.7107 44.5893 18.7693 44.87C18.8883 45.449 19.1081 46.0027 19.4186 46.5057C19.7481 47.0385 20.1843 47.4973 20.6997 47.8534C21.2293 48.2123 21.8264 48.4595 22.4547 48.5799C23.0561 48.6981 23.6732 48.7136 24.2797 48.6256C24.8576 48.5473 25.4235 48.3976 25.9645 48.1798C26.8388 47.8223 27.644 47.3152 28.3442 46.6811C28.99 47.0532 29.6358 47.4568 30.3132 47.8815C29.8023 46.7611 29.0352 45.7765 28.0739 45.007H28.0774ZM25.5819 46.8777L24.8448 46.9619C24.6026 46.9619 24.364 47.0075 24.1429 46.9935C23.6898 47.0125 23.2362 46.9771 22.7916 46.8882C21.9287 46.7237 21.1344 46.3058 20.5102 45.6878C19.8784 45.0458 19.3418 44.3165 18.9168 43.5223C19.6573 43.6592 20.3768 43.7996 21.0823 43.9575C21.6333 44.0839 22.1739 44.2137 22.7073 44.3646C23.2408 44.5155 23.7603 44.6911 24.2868 44.856L25.059 45.1368C25.3152 45.2315 25.5608 45.3579 25.8135 45.4597C26.3296 45.6648 26.8335 45.8992 27.3228 46.1617C27.5228 46.2635 27.7264 46.3758 27.9265 46.4846C27.0981 46.6179 26.3295 46.7724 25.5784 46.8777H25.5819ZM32.4436 45.765C32.3711 45.52 32.2369 45.2977 32.054 45.1193C31.9248 44.9853 31.7798 44.8675 31.6223 44.7683C31.3479 44.583 31.055 44.4265 30.7484 44.3015C30.1672 44.0538 29.5559 43.8839 28.9303 43.7961C29.3936 44.2208 29.8604 44.6139 30.2851 45.021C30.4899 45.2118 30.6833 45.4146 30.8642 45.6282C30.9393 45.718 31.0063 45.8142 31.0643 45.9159C31.1134 46.0037 31.1204 46.0845 31.0994 46.0634C31.0962 46.0519 31.0962 46.0398 31.0994 46.0283C31.0978 46.0166 31.0978 46.0049 31.0994 45.9932V46.0213L31.0467 46.2424L30.9484 46.6847C30.8817 46.9795 30.8291 47.2778 30.7694 47.5762C30.6571 48.1693 30.5659 48.7695 30.4816 49.3696C30.3159 50.5742 30.2151 51.7869 30.1798 53.0023C30.1343 54.2356 30.2025 55.4704 30.3833 56.6912C30.8777 55.5679 31.2666 54.4011 31.5451 53.2059C31.8305 52.0381 32.0531 50.856 32.212 49.6645C32.2857 49.0713 32.3559 48.4746 32.405 47.8745C32.4261 47.5726 32.4506 47.2707 32.4647 46.9689L32.4892 46.5162V46.288V46.26V46.1897C32.4892 46.1406 32.4892 46.0915 32.4892 46.0458C32.4839 45.9506 32.4674 45.8564 32.4401 45.765H32.4436ZM41.7166 49.3521C41.6288 48.7519 41.5376 48.1518 41.4253 47.5586C41.3691 47.2603 41.313 46.9619 41.2463 46.6671L41.148 46.2248L41.0953 46.0037C41.0967 46.0153 41.0967 46.0272 41.0953 46.0388C41.0977 46.0444 41.0989 46.0504 41.0989 46.0564C41.0989 46.0624 41.0977 46.0684 41.0953 46.074C41.0743 46.095 41.0953 46.0142 41.1304 45.9265C41.1884 45.8248 41.2554 45.7285 41.3305 45.6387C41.5117 45.4243 41.7063 45.2215 41.9131 45.0315C42.3378 44.6244 42.8011 44.2313 43.2679 43.8066C42.6413 43.8949 42.0289 44.0648 41.4463 44.312C41.1397 44.4371 40.8468 44.5934 40.5724 44.7788C40.4161 44.8797 40.2714 44.9974 40.1407 45.1297C39.9601 45.3094 39.8274 45.5315 39.7546 45.7756C39.7326 45.8619 39.7186 45.95 39.7125 46.0388C39.7091 46.0867 39.7091 46.1348 39.7125 46.1827V46.281V46.5092L39.7335 46.9619C39.7335 47.2638 39.7722 47.5656 39.7967 47.8674C39.8459 48.4676 39.9125 49.0643 39.9897 49.6575C40.1457 50.8492 40.3672 52.0314 40.6531 53.1988C40.9344 54.3937 41.3245 55.5604 41.8184 56.6842C41.9981 55.4633 42.0651 54.2285 42.0184 52.9953C41.9806 51.7764 41.8786 50.5603 41.7131 49.3521H41.7166ZM54.531 43.2976C53.403 42.8135 52.1852 42.5743 50.958 42.5957C50.343 42.5953 49.729 42.6459 49.1223 42.7466C48.5133 42.8561 47.9128 43.0085 47.3253 43.2028L46.4619 43.5538C46.1776 43.6837 45.9038 43.8347 45.6336 43.9821C45.0828 44.2753 44.566 44.6284 44.0928 45.0351C43.1383 45.8176 42.3789 46.8112 41.8745 47.9376C42.5519 47.5094 43.1977 47.1093 43.8435 46.7373C44.5444 47.3721 45.3509 47.8793 46.2267 48.236C46.7665 48.4537 47.3312 48.6034 47.9079 48.6817C48.5145 48.7698 49.1316 48.7544 49.733 48.6361C50.361 48.5145 50.9579 48.2675 51.4879 47.9096C52.0017 47.5527 52.4366 47.0939 52.7655 46.5618C53.0786 46.0601 53.2986 45.5061 53.4148 44.9262C53.4735 44.6455 53.5064 44.36 53.5131 44.0733C53.5184 43.887 53.5114 43.7006 53.4921 43.5153L54.531 43.2976ZM51.6775 45.6878C51.0519 46.3059 50.2565 46.7237 49.3926 46.8882C48.948 46.9771 48.4943 47.0125 48.0413 46.9935C47.8061 46.9935 47.5675 46.9655 47.3393 46.9619L46.6023 46.8777C45.8512 46.7724 45.079 46.6144 44.2682 46.474C44.4718 46.3617 44.6719 46.2529 44.8789 46.1476C45.3674 45.8859 45.8701 45.6516 46.3847 45.4457C46.6409 45.3474 46.883 45.221 47.1393 45.1262L47.9114 44.8455C48.4344 44.6841 48.9644 44.4945 49.4909 44.3576C50.0173 44.2207 50.5684 44.0768 51.1159 43.9505C51.8179 43.7925 52.5409 43.6522 53.2815 43.5153C52.8543 44.3139 52.3127 45.0458 51.674 45.6878H51.6775ZM41.7166 49.3521C41.6288 48.7519 41.5376 48.1518 41.4253 47.5586C41.3691 47.2603 41.313 46.9619 41.2463 46.6671L41.148 46.2248L41.0953 46.0037C41.0967 46.0153 41.0967 46.0272 41.0953 46.0388C41.0977 46.0444 41.0989 46.0504 41.0989 46.0564C41.0989 46.0624 41.0977 46.0684 41.0953 46.074C41.0743 46.095 41.0953 46.0142 41.1304 45.9265C41.1884 45.8248 41.2554 45.7285 41.3305 45.6387C41.5117 45.4243 41.7063 45.2215 41.9131 45.0315C42.3378 44.6244 42.8011 44.2313 43.2679 43.8066C42.6413 43.8949 42.0289 44.0648 41.4463 44.312C41.1397 44.4371 40.8468 44.5934 40.5724 44.7788C40.4161 44.8797 40.2714 44.9974 40.1407 45.1297C39.9601 45.3094 39.8274 45.5315 39.7546 45.7756C39.7326 45.8619 39.7186 45.95 39.7125 46.0388C39.7091 46.0867 39.7091 46.1348 39.7125 46.1827V46.281V46.5092L39.7335 46.9619C39.7335 47.2638 39.7722 47.5656 39.7967 47.8674C39.8459 48.4676 39.9125 49.0643 39.9897 49.6575C40.1457 50.8492 40.3672 52.0314 40.6531 53.1988C40.9344 54.3937 41.3245 55.5604 41.8184 56.6842C41.9981 55.4633 42.0651 54.2285 42.0184 52.9953C41.9806 51.7764 41.8786 50.5603 41.7131 49.3521H41.7166ZM28.0774 45.007C27.6069 44.5984 27.0911 44.2451 26.5401 43.954C26.2663 43.8066 25.9926 43.6557 25.7118 43.5223L24.8448 43.1713C24.2569 42.9793 23.6565 42.828 23.0478 42.7185C22.4412 42.6175 21.8272 42.567 21.2122 42.5676C19.986 42.5461 18.7694 42.7854 17.6427 43.2696L18.6956 43.4556C18.6752 43.6421 18.667 43.8296 18.671 44.0172C18.6778 44.3038 18.7107 44.5893 18.7693 44.87C18.8883 45.449 19.1081 46.0027 19.4186 46.5057C19.7481 47.0385 20.1843 47.4973 20.6997 47.8534C21.2293 48.2123 21.8264 48.4595 22.4547 48.5799C23.0561 48.6981 23.6732 48.7136 24.2797 48.6256C24.8576 48.5473 25.4235 48.3976 25.9645 48.1798C26.8388 47.8223 27.644 47.3152 28.3442 46.6811C28.99 47.0532 29.6358 47.4568 30.3132 47.8815C29.8023 46.7611 29.0352 45.7765 28.0739 45.007H28.0774ZM25.5819 46.8777L24.8448 46.9619C24.6026 46.9619 24.364 47.0075 24.1429 46.9935C23.6898 47.0125 23.2362 46.9771 22.7916 46.8882C21.9287 46.7237 21.1344 46.3058 20.5102 45.6878C19.8784 45.0458 19.3418 44.3165 18.9168 43.5223C19.6573 43.6592 20.3768 43.7996 21.0823 43.9575C21.6333 44.0839 22.1739 44.2137 22.7073 44.3646C23.2408 44.5155 23.7603 44.6911 24.2868 44.856L25.059 45.1368C25.3152 45.2315 25.5608 45.3579 25.8135 45.4597C26.3296 45.6648 26.8335 45.8992 27.3228 46.1617C27.5228 46.2635 27.7264 46.3758 27.9265 46.4846C27.0981 46.6179 26.3295 46.7724 25.5784 46.8777H25.5819ZM32.4436 45.765C32.3711 45.52 32.2369 45.2977 32.054 45.1193C31.9248 44.9853 31.7798 44.8675 31.6223 44.7683C31.3479 44.583 31.055 44.4265 30.7484 44.3015C30.1672 44.0538 29.5559 43.8839 28.9303 43.7961C29.3936 44.2208 29.8604 44.6139 30.2851 45.021C30.4899 45.2118 30.6833 45.4146 30.8642 45.6282C30.9393 45.718 31.0063 45.8142 31.0643 45.9159C31.1134 46.0037 31.1204 46.0845 31.0994 46.0634C31.0962 46.0519 31.0962 46.0398 31.0994 46.0283C31.0978 46.0166 31.0978 46.0049 31.0994 45.9932V46.0213L31.0467 46.2424L30.9484 46.6847C30.8817 46.9795 30.8291 47.2778 30.7694 47.5762C30.6571 48.1693 30.5659 48.7695 30.4816 49.3696C30.3159 50.5742 30.2151 51.7869 30.1798 53.0023C30.1343 54.2356 30.2025 55.4704 30.3833 56.6912C30.8777 55.5679 31.2666 54.4011 31.5451 53.2059C31.8305 52.0381 32.0531 50.856 32.212 49.6645C32.2857 49.0713 32.3559 48.4746 32.405 47.8745C32.4261 47.5726 32.4506 47.2707 32.4647 46.9689L32.4892 46.5162V46.288V46.26V46.1897C32.4892 46.1406 32.4892 46.0915 32.4892 46.0458C32.4839 45.9506 32.4674 45.8564 32.4401 45.765H32.4436Z" fill="url(#paint0_linear_15_461)"/>
</g>
<defs>
<filter id="filter0_d_15_461" x="0.0299072" y="0" width="72.1356" height="78.0156" filterUnits="userSpaceOnUse" color-interpolation-filters="sRGB">
<feFlood flood-opacity="0" result="BackgroundImageFix"/>
<feColorMatrix in="SourceAlpha" type="matrix" values="0 0 0 0 0 0 0 0 0 0 0 0 0 0 0 0 0 0 127 0" result="hardAlpha"/>
<feOffset dy="4"/>
<feGaussianBlur stdDeviation="2"/>
<feComposite in2="hardAlpha" operator="out"/>
<feColorMatrix type="matrix" values="0 0 0 0 0 0 0 0 0 0 0 0 0 0 0 0 0 0 0.25 0"/>
<feBlend mode="normal" in2="BackgroundImageFix" result="effect1_dropShadow_15_461"/>
<feBlend mode="normal" in="SourceGraphic" in2="effect1_dropShadow_15_461" result="shape"/>
</filter>
<linearGradient id="paint0_linear_15_461" x1="7.5" y1="49.5" x2="68" y2="3.5" gradientUnits="userSpaceOnUse">
<stop stop-color="#7600FF"/>
<stop offset="1" stop-color="#260D42"/>
</linearGradient>
</defs>
</svg>
